%FSLAX24Y24*%
%MOIN*%
G70*
G01*
G75*
G04 Layer_Color=32896*
%ADD10O,0.0138X0.0256*%
%ADD11O,0.0256X0.0138*%
%ADD12R,0.1339X0.1339*%
%ADD13R,0.0354X0.0276*%
%ADD14R,0.0354X0.0315*%
%ADD15R,0.0551X0.0433*%
%ADD16R,0.0315X0.0354*%
%ADD17R,0.0276X0.0354*%
%ADD18R,0.0984X0.0866*%
%ADD19R,0.0197X0.0787*%
%ADD20R,0.0689X0.0571*%
%ADD21R,0.0295X0.0118*%
%ADD22R,0.0256X0.0354*%
%ADD23R,0.0453X0.0551*%
%ADD24R,0.0177X0.0315*%
%ADD25R,0.1260X0.0433*%
%ADD26R,0.0354X0.0256*%
%ADD27C,0.0100*%
%ADD28C,0.0150*%
%ADD29C,0.0200*%
%ADD30C,0.0180*%
%ADD31C,0.0300*%
%ADD32C,0.0130*%
%ADD33C,0.0500*%
%ADD34R,0.0620X0.0620*%
%ADD35C,0.0620*%
%ADD36C,0.0350*%
%ADD37C,0.0098*%
%ADD38C,0.0098*%
%ADD39C,0.0050*%
%ADD40C,0.0079*%
%ADD41C,0.0060*%
%ADD42O,0.0218X0.0336*%
%ADD43O,0.0336X0.0218*%
%ADD44R,0.1419X0.1419*%
%ADD45R,0.0434X0.0356*%
%ADD46R,0.0434X0.0395*%
%ADD47R,0.0631X0.0513*%
%ADD48R,0.0395X0.0434*%
%ADD49R,0.0356X0.0434*%
%ADD50R,0.1064X0.0946*%
%ADD51R,0.0277X0.0867*%
%ADD52R,0.0769X0.0651*%
%ADD53R,0.0375X0.0198*%
%ADD54R,0.0336X0.0434*%
%ADD55R,0.0533X0.0631*%
%ADD56R,0.0257X0.0395*%
%ADD57R,0.1340X0.0513*%
%ADD58R,0.0434X0.0336*%
%ADD59R,0.0700X0.0700*%
%ADD60C,0.0700*%
%ADD61C,0.0430*%
D27*
X31200Y-2000D02*
Y-2700D01*
Y-2000D02*
X31500D01*
X31600Y-2033D01*
X31633Y-2067D01*
X31667Y-2133D01*
Y-2200D01*
X31633Y-2267D01*
X31600Y-2300D01*
X31500Y-2333D01*
X31200D02*
X31500D01*
X31600Y-2367D01*
X31633Y-2400D01*
X31667Y-2467D01*
Y-2567D01*
X31633Y-2633D01*
X31600Y-2667D01*
X31500Y-2700D01*
X31200D01*
X31990Y-2233D02*
X31923Y-2267D01*
X31857Y-2333D01*
X31823Y-2433D01*
Y-2500D01*
X31857Y-2600D01*
X31923Y-2667D01*
X31990Y-2700D01*
X32090D01*
X32156Y-2667D01*
X32223Y-2600D01*
X32256Y-2500D01*
Y-2433D01*
X32223Y-2333D01*
X32156Y-2267D01*
X32090Y-2233D01*
X31990D01*
X32510Y-2000D02*
Y-2567D01*
X32543Y-2667D01*
X32610Y-2700D01*
X32676D01*
X32410Y-2233D02*
X32643D01*
X32876Y-2000D02*
Y-2567D01*
X32910Y-2667D01*
X32976Y-2700D01*
X33043D01*
X32776Y-2233D02*
X33010D01*
X33310D02*
X33243Y-2267D01*
X33176Y-2333D01*
X33143Y-2433D01*
Y-2500D01*
X33176Y-2600D01*
X33243Y-2667D01*
X33310Y-2700D01*
X33410D01*
X33476Y-2667D01*
X33543Y-2600D01*
X33576Y-2500D01*
Y-2433D01*
X33543Y-2333D01*
X33476Y-2267D01*
X33410Y-2233D01*
X33310D01*
X33729D02*
Y-2700D01*
Y-2367D02*
X33829Y-2267D01*
X33896Y-2233D01*
X33996D01*
X34063Y-2267D01*
X34096Y-2367D01*
Y-2700D01*
Y-2367D02*
X34196Y-2267D01*
X34263Y-2233D01*
X34363D01*
X34429Y-2267D01*
X34463Y-2367D01*
Y-2700D01*
X35432Y-2000D02*
X35366Y-2033D01*
X35299Y-2100D01*
X35266Y-2167D01*
X35232Y-2267D01*
Y-2433D01*
X35266Y-2533D01*
X35299Y-2600D01*
X35366Y-2667D01*
X35432Y-2700D01*
X35566D01*
X35632Y-2667D01*
X35699Y-2600D01*
X35732Y-2533D01*
X35766Y-2433D01*
Y-2267D01*
X35732Y-2167D01*
X35699Y-2100D01*
X35632Y-2033D01*
X35566Y-2000D01*
X35432D01*
X35929Y-2233D02*
X36129Y-2700D01*
X36329Y-2233D02*
X36129Y-2700D01*
X36442Y-2433D02*
X36842D01*
Y-2367D01*
X36809Y-2300D01*
X36775Y-2267D01*
X36709Y-2233D01*
X36609D01*
X36542Y-2267D01*
X36476Y-2333D01*
X36442Y-2433D01*
Y-2500D01*
X36476Y-2600D01*
X36542Y-2667D01*
X36609Y-2700D01*
X36709D01*
X36775Y-2667D01*
X36842Y-2600D01*
X36992Y-2233D02*
Y-2700D01*
Y-2433D02*
X37025Y-2333D01*
X37092Y-2267D01*
X37159Y-2233D01*
X37259D01*
X37322Y-2000D02*
Y-2700D01*
X37869Y-2233D02*
Y-2700D01*
Y-2333D02*
X37802Y-2267D01*
X37735Y-2233D01*
X37635D01*
X37569Y-2267D01*
X37502Y-2333D01*
X37469Y-2433D01*
Y-2500D01*
X37502Y-2600D01*
X37569Y-2667D01*
X37635Y-2700D01*
X37735D01*
X37802Y-2667D01*
X37869Y-2600D01*
X38089Y-2233D02*
X38288Y-2700D01*
X38488Y-2233D02*
X38288Y-2700D01*
X38222Y-2833D01*
X38155Y-2900D01*
X38089Y-2933D01*
X38055D01*
D33*
X-250Y6450D02*
X1800D01*
X-250Y4400D02*
Y6450D01*
X19890Y4400D02*
Y6450D01*
X17840D02*
X19890D01*
X17840Y-250D02*
X19890D01*
Y1800D01*
X-250Y-250D02*
Y1800D01*
Y-250D02*
X1800D01*
D39*
X15300Y5000D02*
X15800D01*
Y5650D01*
X15300Y5000D02*
Y5650D01*
X15800D01*
X17467Y2192D02*
X17525Y2250D01*
X17642D01*
X17700Y2192D01*
Y2133D01*
X17642Y2075D01*
X17525D01*
X17467Y2017D01*
Y1958D01*
X17525Y1900D01*
X17642D01*
X17700Y1958D01*
X17175Y1900D02*
X17292D01*
X17350Y1958D01*
Y2075D01*
X17292Y2133D01*
X17175D01*
X17117Y2075D01*
Y2017D01*
X17350D01*
X16825Y1900D02*
X16942D01*
X17000Y1958D01*
Y2075D01*
X16942Y2133D01*
X16825D01*
X16767Y2075D01*
Y2017D01*
X17000D01*
X16475Y1900D02*
X16592D01*
X16650Y1958D01*
Y2075D01*
X16592Y2133D01*
X16475D01*
X16417Y2075D01*
Y2017D01*
X16650D01*
X16067Y2250D02*
Y1900D01*
X16242D01*
X16300Y1958D01*
Y2075D01*
X16242Y2133D01*
X16067D01*
X15542Y1900D02*
Y2250D01*
X15426D02*
Y1900D01*
X15601Y2133D02*
X15426D01*
X15367D01*
X15601Y2017D02*
X15367D01*
X15076Y1900D02*
Y2250D01*
X15251Y2075D01*
X15018D01*
X14901Y1958D02*
X14843Y1900D01*
X14726D01*
X14668Y1958D01*
Y2192D01*
X14726Y2250D01*
X14843D01*
X14901Y2192D01*
Y2133D01*
X14843Y2075D01*
X14668D01*
X14318Y2250D02*
X14434Y2192D01*
X14551Y2075D01*
Y1958D01*
X14493Y1900D01*
X14376D01*
X14318Y1958D01*
Y2017D01*
X14376Y2075D01*
X14551D01*
X14201Y1900D02*
X14085D01*
X14143D01*
Y2250D01*
X14201Y2192D01*
X13910D02*
X13851Y2250D01*
X13735D01*
X13676Y2192D01*
Y1958D01*
X13735Y1900D01*
X13851D01*
X13910Y1958D01*
Y2192D01*
X2100Y3250D02*
Y2900D01*
X1925D01*
X1867Y2958D01*
Y3017D01*
X1925Y3075D01*
X2100D01*
X1925D01*
X1867Y3133D01*
Y3192D01*
X1925Y3250D01*
X2100D01*
X1750D02*
X1517D01*
X1633D01*
Y2900D01*
X1400D02*
X1284D01*
X1342D01*
Y3250D01*
X1400Y3192D01*
X15600Y5433D02*
X15567Y5450D01*
X15517Y5500D01*
Y5150D01*
X16200Y5500D02*
Y5150D01*
Y5500D02*
X16050D01*
X16000Y5483D01*
X15983Y5467D01*
X15967Y5433D01*
Y5400D01*
X15983Y5367D01*
X16000Y5350D01*
X16050Y5333D01*
X16200D01*
X16083D02*
X15967Y5150D01*
X18000Y5500D02*
X18050Y5483D01*
X18083Y5433D01*
X18100Y5350D01*
Y5300D01*
X18083Y5217D01*
X18050Y5167D01*
X18000Y5150D01*
X17967D01*
X17917Y5167D01*
X17883Y5217D01*
X17867Y5300D01*
Y5350D01*
X17883Y5433D01*
X17917Y5483D01*
X17967Y5500D01*
X18000D01*
X17555D02*
X17722Y5150D01*
X17788Y5500D02*
X17555D01*
X17393D02*
X17443Y5483D01*
X17460Y5450D01*
Y5417D01*
X17443Y5383D01*
X17410Y5367D01*
X17343Y5350D01*
X17294Y5333D01*
X17260Y5300D01*
X17244Y5267D01*
Y5217D01*
X17260Y5183D01*
X17277Y5167D01*
X17327Y5150D01*
X17393D01*
X17443Y5167D01*
X17460Y5183D01*
X17477Y5217D01*
Y5267D01*
X17460Y5300D01*
X17427Y5333D01*
X17377Y5350D01*
X17310Y5367D01*
X17277Y5383D01*
X17260Y5417D01*
Y5450D01*
X17277Y5483D01*
X17327Y5500D01*
X17393D01*
X16949Y5383D02*
X16965Y5333D01*
X16999Y5300D01*
X17049Y5283D01*
X17065D01*
X17115Y5300D01*
X17149Y5333D01*
X17165Y5383D01*
Y5400D01*
X17149Y5450D01*
X17115Y5483D01*
X17065Y5500D01*
X17049D01*
X16999Y5483D01*
X16965Y5450D01*
X16949Y5383D01*
Y5300D01*
X16965Y5217D01*
X16999Y5167D01*
X17049Y5150D01*
X17082D01*
X17132Y5167D01*
X17149Y5200D01*
X16820Y5500D02*
X16637D01*
X16737Y5367D01*
X16687D01*
X16654Y5350D01*
X16637Y5333D01*
X16620Y5283D01*
Y5250D01*
X16637Y5200D01*
X16670Y5167D01*
X16720Y5150D01*
X16770D01*
X16820Y5167D01*
X16837Y5183D01*
X16854Y5217D01*
X19000Y5500D02*
X19050Y5483D01*
X19083Y5433D01*
X19100Y5350D01*
Y5300D01*
X19083Y5217D01*
X19050Y5167D01*
X19000Y5150D01*
X18967D01*
X18917Y5167D01*
X18883Y5217D01*
X18867Y5300D01*
Y5350D01*
X18883Y5433D01*
X18917Y5483D01*
X18967Y5500D01*
X19000D01*
X18622D02*
X18788Y5267D01*
X18538D01*
X18622Y5500D02*
Y5150D01*
X18477Y5300D02*
X18177D01*
D40*
X1840Y2100D02*
X3840D01*
X2840Y1100D02*
Y3100D01*
M02*
