%FSLAX24Y24*%
%MOIN*%
G70*
G01*
G75*
G04 Layer_Physical_Order=1*
G04 Layer_Color=255*
%ADD10O,0.0138X0.0256*%
%ADD11O,0.0256X0.0138*%
%ADD12R,0.1339X0.1339*%
%ADD13R,0.0354X0.0276*%
%ADD14R,0.0354X0.0315*%
%ADD15R,0.0551X0.0433*%
%ADD16R,0.0315X0.0354*%
%ADD17R,0.0276X0.0354*%
%ADD18R,0.0984X0.0866*%
%ADD19R,0.0197X0.0787*%
%ADD20R,0.0689X0.0571*%
%ADD21R,0.0295X0.0118*%
%ADD22R,0.0256X0.0354*%
%ADD23R,0.0453X0.0551*%
%ADD24R,0.0177X0.0315*%
%ADD25R,0.1260X0.0433*%
%ADD26R,0.0354X0.0256*%
%ADD27C,0.0100*%
%ADD28C,0.0150*%
%ADD29C,0.0200*%
%ADD30C,0.0180*%
%ADD31C,0.0300*%
%ADD32C,0.0130*%
%ADD33C,0.0500*%
%ADD34R,0.0620X0.0620*%
%ADD35C,0.0620*%
%ADD36C,0.0350*%
G36*
X2257Y5223D02*
X2320D01*
Y5154D01*
X2320D01*
Y5045D01*
X2815D01*
Y5154D01*
X2733D01*
Y5223D01*
X2733D01*
Y5347D01*
X3350D01*
Y5302D01*
X3350D01*
Y5227D01*
X3274D01*
X3215Y5215D01*
X3166Y5182D01*
X2880Y4896D01*
X2815Y4923D01*
Y4958D01*
X2320D01*
Y4836D01*
Y4639D01*
Y4443D01*
Y4246D01*
X2320D01*
Y4227D01*
X2271Y4177D01*
X2257D01*
Y3623D01*
X2733D01*
Y3747D01*
X4367D01*
Y3550D01*
X4843D01*
Y3747D01*
X4957D01*
Y3223D01*
X4957Y3223D01*
X4957Y3177D01*
X4957D01*
Y2650D01*
X4843D01*
Y3177D01*
D01*
Y3177D01*
X4843Y3177D01*
Y3223D01*
X4843D01*
Y3450D01*
X4367D01*
Y3316D01*
X4350Y3302D01*
X500D01*
Y4257D01*
X562Y4290D01*
X607Y4260D01*
X623Y4256D01*
Y4167D01*
X941D01*
X1216Y3892D01*
X1266Y3859D01*
X1266Y3859D01*
X1266Y3859D01*
D01*
X1266Y3859D01*
X1266Y3859D01*
X1324Y3847D01*
X1568D01*
X1624Y3792D01*
X1667Y3763D01*
Y3623D01*
X2143D01*
Y4177D01*
X1674D01*
Y4246D01*
X1674D01*
Y4443D01*
Y4564D01*
X1426D01*
Y4652D01*
X1674D01*
Y4748D01*
X1426D01*
Y4848D01*
X1674D01*
Y4945D01*
X1426D01*
Y5045D01*
X1674D01*
Y5154D01*
X1674D01*
Y5173D01*
X1723Y5223D01*
X2143D01*
Y5700D01*
X2257D01*
Y5223D01*
D02*
G37*
G36*
X5792Y3592D02*
X5841Y3559D01*
X5900Y3547D01*
X6664D01*
X6695Y3484D01*
X6660Y3439D01*
X6632Y3372D01*
X6623Y3300D01*
X6632Y3228D01*
X6660Y3161D01*
X6672Y3146D01*
Y3077D01*
X6618Y3077D01*
D01*
X6582D01*
Y3077D01*
X6374D01*
Y2800D01*
X6324D01*
Y2750D01*
X6067D01*
Y2523D01*
D01*
Y2523D01*
X6056Y2512D01*
X5388D01*
X5349Y2560D01*
X5368Y2600D01*
X5413Y2623D01*
X5433D01*
Y3177D01*
D01*
Y3177D01*
X5433Y3177D01*
Y3223D01*
X5433D01*
Y3747D01*
X5637D01*
X5792Y3592D01*
D02*
G37*
G36*
X4350Y2300D02*
X3000D01*
Y2000D01*
X1450D01*
Y1400D01*
X500D01*
Y3200D01*
X4350D01*
Y2300D01*
D02*
G37*
G36*
X19140Y500D02*
X4452D01*
Y1150D01*
X4553D01*
Y1428D01*
Y1705D01*
X4001D01*
Y1702D01*
X4000D01*
X3961Y1694D01*
X3940Y1680D01*
X3879Y1713D01*
Y1850D01*
X3503D01*
Y1950D01*
X3879D01*
Y2174D01*
Y2198D01*
X4001D01*
Y2095D01*
X4410D01*
X4424Y2023D01*
X4466Y1960D01*
X4563Y1863D01*
X4626Y1821D01*
X4700Y1806D01*
X5200D01*
X5273Y1821D01*
X5328Y1776D01*
Y1655D01*
X6079D01*
Y1879D01*
Y1991D01*
X6265D01*
X6343Y2007D01*
X6358Y2017D01*
X6437D01*
X6463Y1952D01*
X6456Y1944D01*
X6412Y1878D01*
X6396Y1800D01*
X6383Y1783D01*
X6156D01*
Y1268D01*
X6179D01*
X6191Y1256D01*
X6191Y1256D01*
D01*
X6203Y1197D01*
X6236Y1148D01*
X6330Y1054D01*
X6323Y1000D01*
X6332Y928D01*
X6360Y861D01*
X6404Y804D01*
X6461Y760D01*
X6528Y732D01*
X6600Y723D01*
X6672Y732D01*
X6739Y760D01*
X6796Y804D01*
X6840Y861D01*
X6868Y928D01*
X6876Y990D01*
X6883Y1000D01*
X6886Y1002D01*
X7123D01*
Y917D01*
X7677D01*
Y1393D01*
X7123D01*
Y1308D01*
X7050D01*
X7044Y1333D01*
Y1783D01*
X6963D01*
X6937Y1848D01*
X7000Y1912D01*
X7044Y1978D01*
X7060Y2056D01*
X7060Y2056D01*
X7060Y2056D01*
Y2056D01*
Y2274D01*
X7060Y2274D01*
X7060Y2274D01*
Y2274D01*
Y2523D01*
X7133D01*
D01*
X7133D01*
X7147Y2509D01*
Y2500D01*
X7159Y2441D01*
X7192Y2392D01*
X7536Y2048D01*
X7509Y1983D01*
X7123D01*
Y1507D01*
X7677D01*
Y1558D01*
X8047D01*
X8207Y1398D01*
X8257Y1365D01*
X8315Y1353D01*
X8348D01*
X8366Y1325D01*
X8422Y1288D01*
X8467Y1279D01*
X8467Y1277D01*
X8467Y1277D01*
X8467Y1277D01*
Y1050D01*
X8724D01*
Y1000D01*
X8774D01*
Y723D01*
X8982D01*
Y723D01*
X8982D01*
X8982Y723D01*
X9018D01*
Y723D01*
X9533D01*
Y1087D01*
X9599Y1110D01*
X9604Y1104D01*
X9661Y1060D01*
X9728Y1032D01*
X9800Y1023D01*
X9854Y1030D01*
X9992Y892D01*
X10041Y859D01*
X10100Y847D01*
X15283D01*
X15341Y859D01*
X15391Y892D01*
X16461Y1962D01*
X16526Y1935D01*
Y1794D01*
X16526Y1794D01*
X16526D01*
X16542Y1716D01*
X16567Y1679D01*
X16567Y1678D01*
Y1423D01*
X16567D01*
X16567Y1416D01*
X16567Y1423D01*
Y1423D01*
X16567Y1377D01*
X16567D01*
Y1304D01*
X16486D01*
X16439Y1340D01*
X16372Y1368D01*
X16300Y1377D01*
X16228Y1368D01*
X16161Y1340D01*
X16104Y1296D01*
X16060Y1239D01*
X16032Y1172D01*
X16023Y1100D01*
X16032Y1028D01*
X16060Y961D01*
X16104Y904D01*
X16161Y860D01*
X16228Y832D01*
X16300Y823D01*
X16372Y832D01*
X16439Y860D01*
X16486Y896D01*
X16567D01*
Y823D01*
X17043D01*
Y1377D01*
X17043D01*
Y1397D01*
X17069Y1423D01*
X17069D01*
D01*
X17082D01*
X17082D01*
X17100D01*
X17118D01*
X17157Y1377D01*
X17157Y1373D01*
X17157Y1373D01*
X17157D01*
Y1150D01*
X17633D01*
Y1373D01*
X17633Y1373D01*
D01*
D01*
X17633Y1377D01*
Y1384D01*
X17633Y1423D01*
X17633Y1426D01*
X17633Y1427D01*
X17633Y1427D01*
X17633D01*
Y1650D01*
X17376D01*
Y1700D01*
X17326D01*
Y1977D01*
X17131D01*
X17131Y1977D01*
Y1977D01*
X17118Y1977D01*
X17100D01*
X17082D01*
X17069Y1977D01*
X17069Y1977D01*
Y1977D01*
X16934D01*
Y2738D01*
X16928Y2765D01*
Y3232D01*
X15520D01*
Y2738D01*
Y2244D01*
X15947D01*
Y2163D01*
X15137Y1353D01*
X12833D01*
Y1379D01*
X12833D01*
Y1933D01*
D01*
Y1933D01*
X12847Y1947D01*
X12941D01*
Y2698D01*
X12618D01*
X12568Y2749D01*
X12594Y2813D01*
X12941D01*
Y3565D01*
X12833D01*
Y3565D01*
Y3579D01*
X12833Y3614D01*
X12833Y3614D01*
X12833D01*
Y3806D01*
X12576D01*
Y3856D01*
X12526D01*
Y4133D01*
X12331D01*
X12331Y4133D01*
Y4133D01*
X12318Y4133D01*
X12300D01*
X12282D01*
X12269Y4133D01*
X12269Y4133D01*
Y4133D01*
X11767D01*
Y3579D01*
D01*
Y3579D01*
X11753Y3565D01*
X11659D01*
Y3165D01*
X10128D01*
X10119Y3171D01*
X10053Y3184D01*
X9935D01*
X9869Y3171D01*
X9813Y3134D01*
X9776Y3078D01*
X9763Y3012D01*
X9776Y2946D01*
X9813Y2890D01*
Y2878D01*
X9776Y2822D01*
X9763Y2756D01*
X9776Y2690D01*
X9813Y2634D01*
Y2622D01*
X9776Y2566D01*
X9763Y2500D01*
X9776Y2434D01*
X9813Y2378D01*
Y2366D01*
X9776Y2310D01*
X9773Y2294D01*
X10243D01*
X10265Y2322D01*
X10602D01*
X10623Y2300D01*
Y2031D01*
X10623Y2031D01*
X10623D01*
X10623Y2018D01*
Y2000D01*
Y1982D01*
X10623Y1969D01*
X10623Y1969D01*
X10623D01*
Y1774D01*
X11177D01*
Y1969D01*
X11177Y1969D01*
D01*
X11188Y2001D01*
X11205Y2032D01*
X11228Y2032D01*
D01*
X11300Y2023D01*
X11372Y2032D01*
X11439Y2060D01*
X11496Y2104D01*
X11540Y2161D01*
X11568Y2228D01*
X11577Y2300D01*
X11568Y2372D01*
X11540Y2439D01*
X11496Y2496D01*
X11443Y2537D01*
X11466Y2603D01*
X11659D01*
Y1947D01*
X11767D01*
Y1947D01*
Y1933D01*
X11767Y1898D01*
X11767Y1898D01*
X11767D01*
Y1706D01*
X12024D01*
Y1606D01*
X11767D01*
Y1402D01*
X11767Y1402D01*
X11767D01*
X11767Y1379D01*
X11741Y1353D01*
X10554D01*
X10399Y1508D01*
X10440Y1561D01*
X10468Y1628D01*
X10477Y1700D01*
X10468Y1772D01*
X10440Y1839D01*
X10396Y1896D01*
X10339Y1940D01*
X10272Y1968D01*
X10224Y1974D01*
X10225Y1988D01*
X10225Y1988D01*
X10225D01*
X10212Y2054D01*
X10175Y2110D01*
Y2122D01*
X10212Y2178D01*
X10215Y2194D01*
X9773D01*
X9776Y2178D01*
X9813Y2122D01*
Y2110D01*
X9776Y2054D01*
X9763Y1988D01*
X9776Y1922D01*
X9813Y1866D01*
X9869Y1829D01*
X9935Y1816D01*
X9935Y1816D01*
X9932Y1772D01*
X9932Y1772D01*
X9932Y1772D01*
X9923Y1700D01*
X9932Y1628D01*
X9940Y1610D01*
X9890Y1560D01*
X9872Y1568D01*
X9800Y1577D01*
X9728Y1568D01*
X9728Y1568D01*
X9728Y1568D01*
X9684Y1565D01*
X9684D01*
X9671Y1631D01*
X9634Y1687D01*
X9578Y1724D01*
X9512Y1737D01*
X9446Y1724D01*
X9390Y1687D01*
X9378D01*
X9322Y1724D01*
X9256Y1737D01*
X9190Y1724D01*
X9134Y1687D01*
X9122D01*
X9066Y1724D01*
X9000Y1737D01*
X8934Y1724D01*
X8878Y1687D01*
X8866D01*
X8810Y1724D01*
X8744Y1737D01*
X8678Y1724D01*
X8622Y1687D01*
X8610D01*
X8554Y1724D01*
X8488Y1737D01*
X8422Y1724D01*
X8366Y1687D01*
X8352Y1685D01*
X8219Y1819D01*
X8219Y1819D01*
X8219D01*
X8215Y1824D01*
X8202Y1889D01*
X8224Y1922D01*
X8237Y1988D01*
X8224Y2054D01*
X8187Y2110D01*
Y2122D01*
X8224Y2178D01*
X8237Y2244D01*
X8224Y2310D01*
X8187Y2366D01*
Y2378D01*
X8224Y2434D01*
X8237Y2500D01*
X8224Y2566D01*
X8187Y2622D01*
Y2634D01*
X8224Y2690D01*
X8237Y2756D01*
X8224Y2822D01*
X8187Y2878D01*
Y2890D01*
X8224Y2946D01*
X8237Y3012D01*
X8224Y3078D01*
X8187Y3134D01*
X8159Y3152D01*
Y3599D01*
X8147Y3657D01*
X8114Y3707D01*
X7477Y4344D01*
Y4643D01*
X6923D01*
Y4167D01*
D01*
Y4167D01*
X6909Y4153D01*
X6777D01*
Y4167D01*
X6777D01*
Y4374D01*
X6500D01*
Y4474D01*
X6777D01*
Y4682D01*
D01*
Y4682D01*
X6777Y4682D01*
Y4718D01*
X6777D01*
Y4823D01*
X6923D01*
Y4757D01*
X7477D01*
Y5233D01*
X6923D01*
Y5129D01*
X6777D01*
Y5233D01*
X6246D01*
X6241Y5259D01*
X6208Y5308D01*
X5908Y5608D01*
X5871Y5633D01*
X5891Y5700D01*
X9842D01*
X9869Y5635D01*
X9592Y5358D01*
X9573Y5330D01*
X9503Y5328D01*
X9492Y5342D01*
X9407Y5408D01*
X9307Y5449D01*
X9200Y5464D01*
X9093Y5449D01*
X8993Y5408D01*
X8908Y5342D01*
X8842Y5257D01*
X8801Y5157D01*
X8786Y5050D01*
X8801Y4943D01*
X8842Y4843D01*
X8908Y4758D01*
X8993Y4692D01*
X9093Y4651D01*
X9200Y4636D01*
X9307Y4651D01*
X9407Y4692D01*
X9484Y4751D01*
X9547Y4720D01*
Y3903D01*
X9512Y3725D01*
X9446Y3712D01*
X9390Y3675D01*
X9378D01*
X9322Y3712D01*
X9256Y3725D01*
X9190Y3712D01*
X9134Y3675D01*
X9122D01*
X9066Y3712D01*
X9000Y3725D01*
X8934Y3712D01*
X8878Y3675D01*
X8866D01*
X8810Y3712D01*
X8744Y3725D01*
X8678Y3712D01*
X8622Y3675D01*
X8610D01*
X8554Y3712D01*
X8488Y3725D01*
X8422Y3712D01*
X8366Y3675D01*
X8329Y3619D01*
X8316Y3553D01*
Y3435D01*
X8329Y3369D01*
X8366Y3313D01*
X8422Y3276D01*
X8488Y3263D01*
X8554Y3276D01*
X8610Y3313D01*
X8622D01*
X8678Y3276D01*
X8744Y3263D01*
X8810Y3276D01*
X8866Y3313D01*
X8878D01*
X8934Y3276D01*
X9000Y3263D01*
X9066Y3276D01*
X9122Y3313D01*
X9134D01*
X9190Y3276D01*
X9256Y3263D01*
X9322Y3276D01*
X9378Y3313D01*
X9390D01*
X9446Y3276D01*
X9512Y3263D01*
X9578Y3276D01*
X9634Y3313D01*
X9671Y3369D01*
X9684Y3435D01*
Y3450D01*
X9808Y3574D01*
X9841Y3624D01*
X9853Y3682D01*
Y4720D01*
X9916Y4751D01*
X9993Y4692D01*
X10093Y4651D01*
X10200Y4636D01*
X10307Y4651D01*
X10407Y4692D01*
X10492Y4758D01*
X10558Y4843D01*
X10599Y4943D01*
X10614Y5050D01*
X10599Y5157D01*
X10558Y5257D01*
X10499Y5334D01*
X10530Y5397D01*
X10870D01*
X10901Y5334D01*
X10842Y5257D01*
X10801Y5157D01*
X10793Y5100D01*
X11607D01*
X11599Y5157D01*
X11558Y5257D01*
X11499Y5334D01*
X11530Y5397D01*
X11870D01*
X11901Y5334D01*
X11842Y5257D01*
X11801Y5157D01*
X11786Y5050D01*
X11801Y4943D01*
X11842Y4843D01*
X11908Y4758D01*
X11993Y4692D01*
X12093Y4651D01*
X12200Y4636D01*
X12307Y4651D01*
X12407Y4692D01*
X12492Y4758D01*
X12558Y4843D01*
X12599Y4943D01*
X12614Y5050D01*
X12599Y5157D01*
X12558Y5257D01*
X12499Y5334D01*
X12530Y5397D01*
X12637D01*
X12790Y5244D01*
Y4640D01*
X13610D01*
Y5460D01*
X13006D01*
X12831Y5635D01*
X12858Y5700D01*
X19140D01*
Y500D01*
D02*
G37*
G36*
X5947Y5137D02*
Y4636D01*
X5884Y4605D01*
X5839Y4640D01*
X5772Y4668D01*
X5700Y4677D01*
X5628Y4668D01*
X5561Y4640D01*
X5540Y4624D01*
X5477Y4655D01*
Y4669D01*
X5477Y4669D01*
D01*
D01*
X5477Y4682D01*
Y4689D01*
Y4700D01*
Y4705D01*
Y4718D01*
X5477Y4728D01*
X5477Y4731D01*
X5477Y4731D01*
X5477D01*
Y4926D01*
X4923D01*
Y4731D01*
X4923Y4731D01*
X4923D01*
X4923Y4718D01*
Y4700D01*
Y4682D01*
X4923Y4669D01*
X4923Y4669D01*
X4923D01*
Y4504D01*
X4850D01*
Y4554D01*
X4295D01*
Y4098D01*
D01*
Y4098D01*
X4250Y4053D01*
X4117D01*
X3905Y4265D01*
Y4472D01*
Y4650D01*
X3628D01*
Y4750D01*
X3905D01*
Y4846D01*
Y5135D01*
X4117Y5347D01*
X4295D01*
Y5347D01*
Y5302D01*
X4295Y5298D01*
X4295Y5298D01*
X4295D01*
Y5124D01*
X4850D01*
Y5298D01*
X4850Y5298D01*
D01*
D01*
X4850Y5302D01*
D01*
X4895Y5347D01*
X5737D01*
X5947Y5137D01*
D02*
G37*
G36*
X3003Y1500D02*
X4000D01*
Y1600D01*
X4350D01*
Y500D01*
X1600D01*
Y1800D01*
X3003D01*
Y1500D01*
D02*
G37*
%LPC*%
G36*
X17633Y1977D02*
X17426D01*
Y1750D01*
X17633D01*
Y1977D01*
D02*
G37*
G36*
X18346Y2786D02*
X17804D01*
Y2303D01*
X18217D01*
X18256Y2245D01*
X18241Y2207D01*
X18233Y2150D01*
X18590D01*
Y2507D01*
X18533Y2499D01*
X18433Y2458D01*
X18408Y2439D01*
X18346Y2470D01*
Y2786D01*
D02*
G37*
G36*
X18690Y2507D02*
Y2150D01*
X19047D01*
X19039Y2207D01*
X18998Y2307D01*
X18932Y2392D01*
X18847Y2458D01*
X18747Y2499D01*
X18690Y2507D01*
D02*
G37*
G36*
X15420Y2688D02*
X15272D01*
Y2244D01*
X15420D01*
Y2688D01*
D02*
G37*
G36*
X17704Y2786D02*
X17161D01*
Y2303D01*
X17704D01*
Y2786D01*
D02*
G37*
G36*
X15420Y3232D02*
X15272D01*
Y2788D01*
X15420D01*
Y3232D01*
D02*
G37*
G36*
X14396Y2786D02*
X13854D01*
Y2303D01*
X14396D01*
Y2786D01*
D02*
G37*
G36*
X15039D02*
X14496D01*
Y2303D01*
X15039D01*
Y2786D01*
D02*
G37*
G36*
X19047Y2050D02*
X18690D01*
Y1693D01*
X18747Y1701D01*
X18847Y1742D01*
X18932Y1808D01*
X18998Y1893D01*
X19039Y1993D01*
X19047Y2050D01*
D02*
G37*
G36*
X17345Y1050D02*
X17157D01*
Y823D01*
X17345D01*
Y1050D01*
D02*
G37*
G36*
X17633D02*
X17445D01*
Y823D01*
X17633D01*
Y1050D01*
D02*
G37*
G36*
X8674Y950D02*
X8467D01*
Y723D01*
X8674D01*
Y950D01*
D02*
G37*
G36*
X5205Y1705D02*
X4653D01*
Y1428D01*
Y1150D01*
X4672D01*
X4709Y1095D01*
X4700Y1023D01*
X4709Y951D01*
X4737Y884D01*
X4781Y827D01*
X4838Y783D01*
X4905Y755D01*
X4977Y745D01*
X5049Y755D01*
X5116Y783D01*
X5173Y827D01*
X5217Y884D01*
X5245Y951D01*
X5255Y1023D01*
X5245Y1095D01*
X5217Y1162D01*
X5205Y1177D01*
Y1705D01*
D02*
G37*
G36*
X5653Y1555D02*
X5328D01*
Y1288D01*
X5653D01*
Y1555D01*
D02*
G37*
G36*
X11177Y1674D02*
X10950D01*
Y1467D01*
X11177D01*
Y1674D01*
D02*
G37*
G36*
X18590Y2050D02*
X18233D01*
X18241Y1993D01*
X18282Y1893D01*
X18348Y1808D01*
X18433Y1742D01*
X18533Y1701D01*
X18590Y1693D01*
Y2050D01*
D02*
G37*
G36*
X6079Y1555D02*
X5753D01*
Y1288D01*
X6079D01*
Y1555D01*
D02*
G37*
G36*
X10850Y1674D02*
X10623D01*
Y1467D01*
X10850D01*
Y1674D01*
D02*
G37*
G36*
X6274Y3077D02*
X6067D01*
Y2850D01*
X6274D01*
Y3077D01*
D02*
G37*
G36*
X4850Y5024D02*
X4622D01*
Y4846D01*
X4850D01*
Y5024D01*
D02*
G37*
G36*
X14396Y5456D02*
X13854D01*
Y4973D01*
X14396D01*
Y5456D01*
D02*
G37*
G36*
X4522Y5024D02*
X4295D01*
Y4846D01*
X4522D01*
Y5024D01*
D02*
G37*
G36*
X11150Y5000D02*
X10793D01*
X10801Y4943D01*
X10842Y4843D01*
X10908Y4758D01*
X10993Y4692D01*
X11093Y4651D01*
X11150Y4643D01*
Y5000D01*
D02*
G37*
G36*
X11607D02*
X11250D01*
Y4643D01*
X11307Y4651D01*
X11407Y4692D01*
X11492Y4758D01*
X11558Y4843D01*
X11599Y4943D01*
X11607Y5000D01*
D02*
G37*
G36*
X5150Y5233D02*
X4923D01*
Y5026D01*
X5150D01*
Y5233D01*
D02*
G37*
G36*
X5477D02*
X5250D01*
Y5026D01*
X5477D01*
Y5233D01*
D02*
G37*
G36*
X18346Y5456D02*
X17804D01*
Y4973D01*
X18346D01*
Y5456D01*
D02*
G37*
G36*
X15039D02*
X14496D01*
Y4973D01*
X15039D01*
Y5456D01*
D02*
G37*
G36*
X17704D02*
X17161D01*
Y4973D01*
X17704D01*
Y5456D01*
D02*
G37*
G36*
X18346Y3369D02*
X17804D01*
Y2886D01*
X18346D01*
Y3369D01*
D02*
G37*
G36*
X12833Y4133D02*
X12626D01*
Y3906D01*
X12833D01*
Y4133D01*
D02*
G37*
G36*
X17704Y3369D02*
X17161D01*
Y2886D01*
X17704D01*
Y3369D01*
D02*
G37*
G36*
X14396D02*
X13854D01*
Y2886D01*
X14396D01*
Y3369D01*
D02*
G37*
G36*
X15039D02*
X14496D01*
Y2886D01*
X15039D01*
Y3369D01*
D02*
G37*
G36*
X18346Y4873D02*
X17804D01*
Y4390D01*
X18346D01*
Y4873D01*
D02*
G37*
G36*
X8200Y5464D02*
X8093Y5449D01*
X7993Y5408D01*
X7908Y5342D01*
X7842Y5257D01*
X7801Y5157D01*
X7786Y5050D01*
X7801Y4943D01*
X7842Y4843D01*
X7908Y4758D01*
X7993Y4692D01*
X8093Y4651D01*
X8200Y4636D01*
X8307Y4651D01*
X8407Y4692D01*
X8492Y4758D01*
X8558Y4843D01*
X8599Y4943D01*
X8614Y5050D01*
X8599Y5157D01*
X8558Y5257D01*
X8492Y5342D01*
X8407Y5408D01*
X8307Y5449D01*
X8200Y5464D01*
D02*
G37*
G36*
X17704Y4873D02*
X17161D01*
Y4390D01*
X17704D01*
Y4873D01*
D02*
G37*
G36*
X14396D02*
X13854D01*
Y4390D01*
X14396D01*
Y4873D01*
D02*
G37*
G36*
X15039D02*
X14496D01*
Y4390D01*
X15039D01*
Y4873D01*
D02*
G37*
%LPD*%
D10*
X9512Y3494D02*
D03*
X9256D02*
D03*
X9000D02*
D03*
X8744D02*
D03*
X8488D02*
D03*
X8488Y1506D02*
D03*
X8744D02*
D03*
X9000D02*
D03*
X9256D02*
D03*
X9512D02*
D03*
D11*
X8006Y3012D02*
D03*
Y2756D02*
D03*
Y2500D02*
D03*
Y2244D02*
D03*
Y1988D02*
D03*
X9994Y1988D02*
D03*
Y2244D02*
D03*
Y2500D02*
D03*
Y2756D02*
D03*
Y3012D02*
D03*
D12*
X9000Y2500D02*
D03*
D13*
X7200Y4995D02*
D03*
Y4405D02*
D03*
X7400Y1745D02*
D03*
Y1155D02*
D03*
D14*
X5200Y4424D02*
D03*
Y4976D02*
D03*
X10900Y2276D02*
D03*
Y1724D02*
D03*
X6500Y4976D02*
D03*
Y4424D02*
D03*
X900Y4424D02*
D03*
Y4976D02*
D03*
D15*
X5703Y2195D02*
D03*
Y1605D02*
D03*
X3503Y2491D02*
D03*
Y1900D02*
D03*
D16*
X17376Y1700D02*
D03*
X16824D02*
D03*
X9276Y1000D02*
D03*
X8724D02*
D03*
X6324Y2800D02*
D03*
X6876D02*
D03*
X12576Y1656D02*
D03*
X12024D02*
D03*
Y3856D02*
D03*
X12576D02*
D03*
D17*
X17395Y1100D02*
D03*
X16805D02*
D03*
X4605Y2900D02*
D03*
X5195D02*
D03*
Y3500D02*
D03*
X4605D02*
D03*
X2495Y3900D02*
D03*
X1905D02*
D03*
X2495Y5500D02*
D03*
X1905D02*
D03*
D18*
X14446Y4923D02*
D03*
X17754D02*
D03*
Y2836D02*
D03*
X14446D02*
D03*
D19*
X16730Y2738D02*
D03*
X16415D02*
D03*
X16100D02*
D03*
X15785D02*
D03*
X15470D02*
D03*
D20*
X1997Y4700D02*
D03*
D21*
X1426Y4405D02*
D03*
Y4602D02*
D03*
Y4798D02*
D03*
Y4995D02*
D03*
X2568D02*
D03*
Y4798D02*
D03*
Y4602D02*
D03*
Y4405D02*
D03*
D22*
X4229Y1428D02*
D03*
X4603D02*
D03*
X4977D02*
D03*
Y2372D02*
D03*
X4603D02*
D03*
X4229D02*
D03*
D23*
X12615Y2323D02*
D03*
Y3189D02*
D03*
X11985D02*
D03*
Y2323D02*
D03*
D24*
X6344Y2274D02*
D03*
Y1526D02*
D03*
X6600D02*
D03*
X6856D02*
D03*
Y2274D02*
D03*
D25*
X2303Y2313D02*
D03*
Y1487D02*
D03*
D26*
X3628Y5074D02*
D03*
Y4700D02*
D03*
Y4326D02*
D03*
X4572D02*
D03*
Y5074D02*
D03*
D27*
X4054Y5500D02*
X5800D01*
X6300Y4000D02*
X7200D01*
X10100Y1000D02*
X15283D01*
X10490Y1200D02*
X15200D01*
X17376Y1700D02*
X17395Y1680D01*
Y1100D02*
Y1680D01*
X9512Y3494D02*
X9700Y3682D01*
Y5250D01*
X8006Y3012D02*
Y3599D01*
X7200Y4000D02*
X7600Y3600D01*
Y2700D02*
Y3600D01*
X4054Y3900D02*
X5700D01*
X9700Y5250D02*
X10000Y5550D01*
X8315Y1506D02*
X8488D01*
X8110Y1711D02*
X8315Y1506D01*
X7435Y1711D02*
X8110D01*
X1426Y4798D02*
Y4995D01*
Y4602D02*
Y4798D01*
X7400Y1745D02*
X7435Y1711D01*
X9994Y2756D02*
X12344D01*
X11808Y3012D02*
X11985Y3189D01*
X9994Y3012D02*
X11808D01*
X7200Y4405D02*
X8006Y3599D01*
X2568Y4602D02*
X2802D01*
X4605Y2374D02*
Y2900D01*
X4603Y2372D02*
X4605Y2374D01*
X5195Y2591D02*
Y2900D01*
X4977Y2372D02*
X5195Y2591D01*
Y2900D02*
Y3500D01*
X6500Y4976D02*
X7180D01*
X7200Y4995D01*
X12024Y3228D02*
Y3856D01*
X12344Y2756D02*
X12615Y2485D01*
X12576Y1656D02*
X12615Y1695D01*
X15200Y1200D02*
X16100Y2100D01*
Y2738D01*
X16415Y2132D02*
Y2738D01*
X15283Y1000D02*
X16415Y2132D01*
X11985Y3189D02*
X12024Y3228D01*
X12615Y1695D02*
Y2323D01*
Y2485D01*
X6344Y1256D02*
X6600Y1000D01*
X6344Y1256D02*
Y1526D01*
X6755Y1155D02*
X7400D01*
X6728Y1128D02*
X6755Y1155D01*
X9994Y2500D02*
X10200D01*
Y1490D02*
Y1700D01*
Y1490D02*
X10490Y1200D01*
X9800Y1300D02*
X10100Y1000D01*
X10200Y1700D02*
Y1782D01*
X9994Y1988D02*
X10200Y1782D01*
X9718Y1300D02*
X9800D01*
X9512Y1506D02*
X9718Y1300D01*
X10000Y5550D02*
X12700D01*
X13200Y5050D01*
X4977Y1023D02*
Y1428D01*
X1324Y4000D02*
X1632D01*
X1732Y3900D01*
X1905D01*
X900Y4424D02*
X920Y4405D01*
X1324Y4000D01*
X920Y4405D02*
X1426D01*
X900Y4976D02*
X1406D01*
X1426Y4995D01*
X2802Y4602D02*
X3274Y5074D01*
X3628D01*
X4054Y5500D01*
X2495D02*
X4054D01*
X2568Y4405D02*
X3095D01*
X3174Y4326D01*
X3628D01*
X7812Y1988D02*
X8006D01*
X7300Y2500D02*
X7812Y1988D01*
X7300Y2500D02*
Y3500D01*
X7100Y3700D02*
X7300Y3500D01*
X5900Y3700D02*
X7100D01*
X5700Y3900D02*
X5900Y3700D01*
X3628Y4326D02*
X4054Y3900D01*
X2495D02*
X4054D01*
X7800Y2500D02*
X8006D01*
X7600Y2700D02*
X7800Y2500D01*
X6100Y4200D02*
X6300Y4000D01*
X5800Y5500D02*
X6100Y5200D01*
Y4200D02*
Y5200D01*
X12833Y-2000D02*
Y-2700D01*
X12600Y-2000D02*
X13067D01*
X13317Y-2233D02*
X13250Y-2267D01*
X13183Y-2333D01*
X13150Y-2433D01*
Y-2500D01*
X13183Y-2600D01*
X13250Y-2667D01*
X13317Y-2700D01*
X13416D01*
X13483Y-2667D01*
X13550Y-2600D01*
X13583Y-2500D01*
Y-2433D01*
X13550Y-2333D01*
X13483Y-2267D01*
X13416Y-2233D01*
X13317D01*
X13736D02*
Y-2933D01*
Y-2333D02*
X13803Y-2267D01*
X13870Y-2233D01*
X13970D01*
X14036Y-2267D01*
X14103Y-2333D01*
X14136Y-2433D01*
Y-2500D01*
X14103Y-2600D01*
X14036Y-2667D01*
X13970Y-2700D01*
X13870D01*
X13803Y-2667D01*
X13736Y-2600D01*
X14836Y-2000D02*
Y-2700D01*
X15236D01*
X15713Y-2233D02*
Y-2700D01*
Y-2333D02*
X15646Y-2267D01*
X15579Y-2233D01*
X15479D01*
X15413Y-2267D01*
X15346Y-2333D01*
X15313Y-2433D01*
Y-2500D01*
X15346Y-2600D01*
X15413Y-2667D01*
X15479Y-2700D01*
X15579D01*
X15646Y-2667D01*
X15713Y-2600D01*
X15933Y-2233D02*
X16133Y-2700D01*
X16333Y-2233D02*
X16133Y-2700D01*
X16066Y-2833D01*
X15999Y-2900D01*
X15933Y-2933D01*
X15899D01*
X16449Y-2433D02*
X16849D01*
Y-2367D01*
X16816Y-2300D01*
X16782Y-2267D01*
X16716Y-2233D01*
X16616D01*
X16549Y-2267D01*
X16482Y-2333D01*
X16449Y-2433D01*
Y-2500D01*
X16482Y-2600D01*
X16549Y-2667D01*
X16616Y-2700D01*
X16716D01*
X16782Y-2667D01*
X16849Y-2600D01*
X16999Y-2233D02*
Y-2700D01*
Y-2433D02*
X17032Y-2333D01*
X17099Y-2267D01*
X17166Y-2233D01*
X17266D01*
D28*
X10900Y2276D02*
X11276D01*
X11300Y2300D01*
X1400Y5500D02*
X1905D01*
X6265Y2195D02*
X6344Y2274D01*
X10200Y2500D02*
X10676D01*
X10900Y2276D01*
X6856Y1256D02*
Y1526D01*
X5102Y4326D02*
X5200Y4424D01*
X4572Y4326D02*
X5102D01*
X500Y5300D02*
X700Y5500D01*
X500Y4600D02*
X676Y4424D01*
X500Y4600D02*
Y5300D01*
X676Y4424D02*
X900D01*
X700Y5500D02*
X1400D01*
D29*
X5200Y4424D02*
X5224Y4400D01*
X5700D01*
X6876Y3276D02*
X6900Y3300D01*
X6876Y2800D02*
Y3276D01*
X5703Y2195D02*
X6265D01*
X6856Y2274D02*
Y2780D01*
X6876Y2800D01*
X6600Y1800D02*
X6856Y2056D01*
Y2274D01*
X16730Y1794D02*
Y2738D01*
Y1794D02*
X16824Y1700D01*
Y1120D02*
Y1700D01*
X16805Y1100D02*
X16824Y1120D01*
X16300Y1100D02*
X16805D01*
X6600Y1000D02*
X6728Y1128D01*
X6755Y1155D02*
X6856Y1256D01*
D30*
X5200Y2000D02*
X5395Y2195D01*
X5703D01*
X4603Y1428D02*
Y1697D01*
Y2097D02*
Y2372D01*
Y2097D02*
X4700Y2000D01*
X4200Y1900D02*
X4400D01*
X4603Y1697D01*
X4700Y2000D02*
X5200D01*
X6600Y1526D02*
Y1800D01*
D31*
X3503Y1900D02*
X4200D01*
D32*
X9256Y1020D02*
X9276Y1000D01*
X9256Y1020D02*
Y1506D01*
D33*
X-250Y6450D02*
X1800D01*
X-250Y4400D02*
Y6450D01*
X19890Y4400D02*
Y6450D01*
X17840D02*
X19890D01*
X17840Y-250D02*
X19890D01*
Y1800D01*
X-250Y-250D02*
Y1800D01*
Y-250D02*
X1800D01*
D34*
X13200Y5050D02*
D03*
D35*
X12200D02*
D03*
X11200D02*
D03*
X10200D02*
D03*
X9200D02*
D03*
X8200D02*
D03*
X15411Y3624D02*
D03*
X16789D02*
D03*
X1040Y2100D02*
D03*
X18640D02*
D03*
D36*
X9472Y2972D02*
D03*
Y2500D02*
D03*
Y2028D02*
D03*
X9000Y2972D02*
D03*
Y2500D02*
D03*
Y2028D02*
D03*
X8528Y2972D02*
D03*
Y2500D02*
D03*
Y2028D02*
D03*
X5700Y1100D02*
D03*
X8050Y1250D02*
D03*
X5750Y2800D02*
D03*
X11300Y2300D02*
D03*
X6900Y3300D02*
D03*
X5700Y4400D02*
D03*
X1400Y5500D02*
D03*
X1830Y4700D02*
D03*
X2160D02*
D03*
X16300Y1100D02*
D03*
X6600Y1000D02*
D03*
X10200Y1700D02*
D03*
X9800Y1300D02*
D03*
X4977Y1023D02*
D03*
X4100Y2900D02*
D03*
Y3500D02*
D03*
Y4700D02*
D03*
M02*
