M48
;Layer_Color=9474304
;FILE_FORMAT=2:4
INCH,LZ
;TYPE=PLATED
T1F00S00C0.0150
T2F00S00C0.0420
%
T01
X004977Y001023
X0057Y0011
X0066Y001
X00805Y00125
X0098Y0013
X0163Y0011
X0113Y0023
X0102Y0017
X009472Y002028
Y0025
Y002972
X009
Y0025
Y002028
X008528
Y0025
Y002972
X0069Y0033
X00575Y0028
X0057Y0044
X0041Y0047
Y0035
Y0029
X00216Y0047
X00183
X0014Y0055
T02
X0082Y00505
X0092
X0102
X0112
X0122
X0132
X015411Y003624
X016789
X01864Y0021
X00104
M30
