%FSLAX24Y24*%
%MOIN*%
G70*
G01*
G75*
G04 Layer_Color=8421504*
%ADD10O,0.0138X0.0256*%
%ADD11O,0.0256X0.0138*%
%ADD12R,0.1339X0.1339*%
%ADD13R,0.0354X0.0276*%
%ADD14R,0.0354X0.0315*%
%ADD15R,0.0551X0.0433*%
%ADD16R,0.0315X0.0354*%
%ADD17R,0.0276X0.0354*%
%ADD18R,0.0984X0.0866*%
%ADD19R,0.0197X0.0787*%
%ADD20R,0.0689X0.0571*%
%ADD21R,0.0295X0.0118*%
%ADD22R,0.0256X0.0354*%
%ADD23R,0.0453X0.0551*%
%ADD24R,0.0177X0.0315*%
%ADD25R,0.1260X0.0433*%
%ADD26R,0.0354X0.0256*%
%ADD27C,0.0100*%
%ADD28C,0.0150*%
%ADD29C,0.0200*%
%ADD30C,0.0180*%
%ADD31C,0.0300*%
%ADD32C,0.0130*%
%ADD33C,0.0500*%
%ADD34R,0.0620X0.0620*%
%ADD35C,0.0620*%
%ADD36C,0.0350*%
%ADD37C,0.0098*%
%ADD38C,0.0098*%
%ADD39C,0.0050*%
%ADD40C,0.0079*%
%ADD41C,0.0060*%
D10*
X9512Y3494D02*
D03*
X9256D02*
D03*
X9000D02*
D03*
X8744D02*
D03*
X8488D02*
D03*
X8488Y1506D02*
D03*
X8744D02*
D03*
X9000D02*
D03*
X9256D02*
D03*
X9512D02*
D03*
D11*
X8006Y3012D02*
D03*
Y2756D02*
D03*
Y2500D02*
D03*
Y2244D02*
D03*
Y1988D02*
D03*
X9994Y1988D02*
D03*
Y2244D02*
D03*
Y2500D02*
D03*
Y2756D02*
D03*
Y3012D02*
D03*
D12*
X9000Y2500D02*
D03*
D13*
X7200Y4995D02*
D03*
Y4405D02*
D03*
X7400Y1745D02*
D03*
Y1155D02*
D03*
D14*
X5200Y4424D02*
D03*
Y4976D02*
D03*
X10900Y2276D02*
D03*
Y1724D02*
D03*
X6500Y4976D02*
D03*
Y4424D02*
D03*
X900Y4424D02*
D03*
Y4976D02*
D03*
D15*
X5703Y2195D02*
D03*
Y1605D02*
D03*
X3503Y2491D02*
D03*
Y1900D02*
D03*
D16*
X17376Y1700D02*
D03*
X16824D02*
D03*
X9276Y1000D02*
D03*
X8724D02*
D03*
X6324Y2800D02*
D03*
X6876D02*
D03*
X12576Y1656D02*
D03*
X12024D02*
D03*
Y3856D02*
D03*
X12576D02*
D03*
D17*
X17395Y1100D02*
D03*
X16805D02*
D03*
X4605Y2900D02*
D03*
X5195D02*
D03*
Y3500D02*
D03*
X4605D02*
D03*
X2495Y3900D02*
D03*
X1905D02*
D03*
X2495Y5500D02*
D03*
X1905D02*
D03*
D18*
X14446Y4923D02*
D03*
X17754D02*
D03*
Y2836D02*
D03*
X14446D02*
D03*
D19*
X16730Y2738D02*
D03*
X16415D02*
D03*
X16100D02*
D03*
X15785D02*
D03*
X15470D02*
D03*
D20*
X1997Y4700D02*
D03*
D21*
X1426Y4405D02*
D03*
Y4602D02*
D03*
Y4798D02*
D03*
Y4995D02*
D03*
X2568D02*
D03*
Y4798D02*
D03*
Y4602D02*
D03*
Y4405D02*
D03*
D22*
X4229Y1428D02*
D03*
X4603D02*
D03*
X4977D02*
D03*
Y2372D02*
D03*
X4603D02*
D03*
X4229D02*
D03*
D23*
X12615Y2323D02*
D03*
Y3189D02*
D03*
X11985D02*
D03*
Y2323D02*
D03*
D25*
X2303Y2313D02*
D03*
Y1487D02*
D03*
D26*
X3628Y5074D02*
D03*
Y4700D02*
D03*
Y4326D02*
D03*
X4572D02*
D03*
Y5074D02*
D03*
D33*
X-250Y6450D02*
X1800D01*
X-250Y4400D02*
Y6450D01*
X19890Y4400D02*
Y6450D01*
X17840D02*
X19890D01*
X17840Y-250D02*
X19890D01*
Y1800D01*
X-250Y-250D02*
Y1800D01*
Y-250D02*
X1800D01*
M02*
