%FSLAX24Y24*%
%MOIN*%
G70*
G01*
G75*
G04 Layer_Color=45234*
%ADD10O,0.0138X0.0256*%
%ADD11O,0.0256X0.0138*%
%ADD12R,0.1339X0.1339*%
%ADD13R,0.0354X0.0276*%
%ADD14R,0.0354X0.0315*%
%ADD15R,0.0551X0.0433*%
%ADD16R,0.0315X0.0354*%
%ADD17R,0.0276X0.0354*%
%ADD18R,0.0984X0.0866*%
%ADD19R,0.0197X0.0787*%
%ADD20R,0.0689X0.0571*%
%ADD21R,0.0295X0.0118*%
%ADD22R,0.0256X0.0354*%
%ADD23R,0.0453X0.0551*%
%ADD24R,0.0177X0.0315*%
%ADD25R,0.1260X0.0433*%
%ADD26R,0.0354X0.0256*%
%ADD27C,0.0100*%
%ADD28C,0.0150*%
%ADD29C,0.0200*%
%ADD30C,0.0180*%
%ADD31C,0.0300*%
%ADD32C,0.0130*%
%ADD33C,0.0500*%
%ADD34R,0.0620X0.0620*%
%ADD35C,0.0620*%
%ADD36C,0.0350*%
%ADD37C,0.0098*%
%ADD38C,0.0098*%
%ADD39C,0.0050*%
%ADD40C,0.0079*%
%ADD41C,0.0060*%
G36*
X14685Y2110D02*
X14697D01*
X14712Y2109D01*
X14729Y2106D01*
X14748Y2104D01*
X14767Y2100D01*
X14789Y2097D01*
X14834Y2085D01*
X14882Y2069D01*
X14907Y2061D01*
X14932Y2049D01*
X15318Y1438D01*
Y1437D01*
Y1435D01*
Y1431D01*
X15317Y1425D01*
X15315Y1410D01*
X15312Y1391D01*
X15308Y1370D01*
X15302Y1346D01*
X15292Y1321D01*
X15280Y1297D01*
X14946Y1824D01*
X14945Y1826D01*
X14942Y1832D01*
X14936Y1839D01*
X14929Y1846D01*
X14920Y1855D01*
X14910Y1861D01*
X14898Y1867D01*
X14885Y1868D01*
X14881D01*
X14875Y1867D01*
X14868Y1864D01*
X14857Y1858D01*
X14849Y1851D01*
X14837Y1840D01*
X14827Y1827D01*
X14716Y1670D01*
X15114Y1040D01*
X15112Y1039D01*
X15105Y1033D01*
X15095Y1024D01*
X15080Y1012D01*
X15061Y999D01*
X15040Y985D01*
X15013Y969D01*
X14984Y953D01*
X14952Y935D01*
X14917Y919D01*
X14878Y904D01*
X14837Y891D01*
X14793Y880D01*
X14747Y871D01*
X14698Y865D01*
X14647Y864D01*
X14636D01*
X14620Y865D01*
X14601Y867D01*
X14576Y869D01*
X14548Y874D01*
X14518Y881D01*
X14484Y888D01*
X14448Y900D01*
X14410Y913D01*
X14370Y929D01*
X14330Y948D01*
X14290Y972D01*
X14251Y998D01*
X14211Y1030D01*
X14175Y1065D01*
X14346Y1303D01*
Y1304D01*
X14347Y1305D01*
X14351Y1314D01*
X14356Y1326D01*
X14357Y1342D01*
Y1343D01*
Y1345D01*
X14356Y1349D01*
X14354Y1354D01*
X14353Y1361D01*
X14348Y1370D01*
X14344Y1378D01*
X14337Y1390D01*
X14210Y1588D01*
X14022Y1327D01*
Y1329D01*
X14020Y1330D01*
Y1335D01*
X14019Y1340D01*
X14017Y1348D01*
X14015Y1356D01*
X14012Y1378D01*
X14007Y1403D01*
X14003Y1432D01*
X14001Y1464D01*
X14000Y1498D01*
Y1501D01*
Y1510D01*
X14001Y1523D01*
X14003Y1540D01*
X14006Y1561D01*
X14010Y1585D01*
X14016Y1615D01*
X14025Y1645D01*
X14035Y1677D01*
X14048Y1712D01*
X14064Y1747D01*
X14083Y1784D01*
X14105Y1820D01*
X14131Y1857D01*
X14162Y1893D01*
X14197Y1928D01*
X14200Y1929D01*
X14206Y1935D01*
X14217Y1945D01*
X14232Y1957D01*
X14251Y1970D01*
X14273Y1986D01*
X14299Y2002D01*
X14328Y2020D01*
X14360Y2037D01*
X14397Y2053D01*
X14434Y2069D01*
X14475Y2083D01*
X14518Y2094D01*
X14564Y2104D01*
X14611Y2110D01*
X14660Y2112D01*
X14675D01*
X14685Y2110D01*
D02*
G37*
G36*
X13550Y4000D02*
X12850D01*
X13200Y4500D01*
X13550Y4000D01*
D02*
G37*
%LPC*%
G36*
X14440Y1868D02*
X14434D01*
X14429Y1867D01*
X14421Y1864D01*
X14413Y1858D01*
X14402Y1852D01*
X14392Y1842D01*
X14382Y1829D01*
X14268Y1671D01*
X14608Y1141D01*
X14609Y1139D01*
X14611Y1136D01*
X14614Y1130D01*
X14618Y1125D01*
X14625Y1114D01*
X14628Y1110D01*
X14630Y1109D01*
X14631Y1106D01*
X14639Y1100D01*
X14647Y1094D01*
X14660Y1091D01*
X14666D01*
X14672Y1093D01*
X14681Y1095D01*
X14690Y1098D01*
X14700Y1106D01*
X14709Y1114D01*
X14719Y1126D01*
X14837Y1297D01*
X14500Y1827D01*
X14499Y1829D01*
X14496Y1833D01*
X14490Y1840D01*
X14483Y1848D01*
X14474Y1855D01*
X14464Y1862D01*
X14452Y1867D01*
X14440Y1868D01*
D02*
G37*
%LPD*%
D27*
X19640Y-1200D02*
Y-300D01*
X0Y-1200D02*
Y-300D01*
X12519Y-1100D02*
X19640D01*
X0D02*
X6801D01*
X19040Y-900D02*
X19640Y-1100D01*
X19040Y-1300D02*
X19640Y-1100D01*
X0D02*
X600Y-1300D01*
X0Y-1100D02*
X600Y-900D01*
X-1100Y6200D02*
X-300D01*
X-1100Y0D02*
X-300D01*
X-1000Y-1000D02*
Y0D01*
Y6200D02*
Y7200D01*
X-1200Y-600D02*
X-1000Y0D01*
X-800Y-600D01*
X-1000Y6200D02*
X-800Y6800D01*
X-1200D02*
X-1000Y6200D01*
X800Y6250D02*
X2000Y7450D01*
X3100D01*
X800Y6250D02*
Y6750D01*
Y6250D02*
X1300D01*
X6206Y1800D02*
Y2000D01*
X6550Y2235D02*
X6650D01*
X6994Y1800D02*
Y2000D01*
X3400Y7850D02*
Y7150D01*
Y7850D02*
X3700D01*
X3800Y7817D01*
X3833Y7783D01*
X3867Y7717D01*
Y7650D01*
X3833Y7583D01*
X3800Y7550D01*
X3700Y7517D01*
X3400D02*
X3700D01*
X3800Y7483D01*
X3833Y7450D01*
X3867Y7383D01*
Y7283D01*
X3833Y7217D01*
X3800Y7183D01*
X3700Y7150D01*
X3400D01*
X4190Y7617D02*
X4123Y7583D01*
X4057Y7517D01*
X4023Y7417D01*
Y7350D01*
X4057Y7250D01*
X4123Y7183D01*
X4190Y7150D01*
X4290D01*
X4356Y7183D01*
X4423Y7250D01*
X4456Y7350D01*
Y7417D01*
X4423Y7517D01*
X4356Y7583D01*
X4290Y7617D01*
X4190D01*
X5010D02*
Y7150D01*
Y7517D02*
X4943Y7583D01*
X4876Y7617D01*
X4776D01*
X4710Y7583D01*
X4643Y7517D01*
X4610Y7417D01*
Y7350D01*
X4643Y7250D01*
X4710Y7183D01*
X4776Y7150D01*
X4876D01*
X4943Y7183D01*
X5010Y7250D01*
X5196Y7617D02*
Y7150D01*
Y7417D02*
X5230Y7517D01*
X5296Y7583D01*
X5363Y7617D01*
X5463D01*
X5926Y7850D02*
Y7150D01*
Y7517D02*
X5859Y7583D01*
X5793Y7617D01*
X5693D01*
X5626Y7583D01*
X5560Y7517D01*
X5526Y7417D01*
Y7350D01*
X5560Y7250D01*
X5626Y7183D01*
X5693Y7150D01*
X5793D01*
X5859Y7183D01*
X5926Y7250D01*
X6663Y7850D02*
Y7150D01*
Y7517D02*
X6729Y7583D01*
X6796Y7617D01*
X6896D01*
X6963Y7583D01*
X7029Y7517D01*
X7063Y7417D01*
Y7350D01*
X7029Y7250D01*
X6963Y7183D01*
X6896Y7150D01*
X6796D01*
X6729Y7183D01*
X6663Y7250D01*
X7379Y7617D02*
X7312Y7583D01*
X7246Y7517D01*
X7213Y7417D01*
Y7350D01*
X7246Y7250D01*
X7312Y7183D01*
X7379Y7150D01*
X7479D01*
X7546Y7183D01*
X7612Y7250D01*
X7646Y7350D01*
Y7417D01*
X7612Y7517D01*
X7546Y7583D01*
X7479Y7617D01*
X7379D01*
X7799D02*
Y7283D01*
X7832Y7183D01*
X7899Y7150D01*
X7999D01*
X8066Y7183D01*
X8166Y7283D01*
Y7617D02*
Y7150D01*
X8349Y7617D02*
Y7150D01*
Y7483D02*
X8449Y7583D01*
X8516Y7617D01*
X8616D01*
X8682Y7583D01*
X8716Y7483D01*
Y7150D01*
X9299Y7850D02*
Y7150D01*
Y7517D02*
X9232Y7583D01*
X9165Y7617D01*
X9065D01*
X8999Y7583D01*
X8932Y7517D01*
X8899Y7417D01*
Y7350D01*
X8932Y7250D01*
X8999Y7183D01*
X9065Y7150D01*
X9165D01*
X9232Y7183D01*
X9299Y7250D01*
X9885Y7617D02*
Y7150D01*
Y7517D02*
X9819Y7583D01*
X9752Y7617D01*
X9652D01*
X9585Y7583D01*
X9519Y7517D01*
X9485Y7417D01*
Y7350D01*
X9519Y7250D01*
X9585Y7183D01*
X9652Y7150D01*
X9752D01*
X9819Y7183D01*
X9885Y7250D01*
X10072Y7617D02*
Y7150D01*
Y7417D02*
X10105Y7517D01*
X10172Y7583D01*
X10239Y7617D01*
X10339D01*
X10435D02*
X10635Y7150D01*
X10835Y7617D02*
X10635Y7150D01*
X10568Y7017D01*
X10502Y6950D01*
X10435Y6917D01*
X10402D01*
X11902Y7517D02*
X11835Y7583D01*
X11768Y7617D01*
X11668D01*
X11602Y7583D01*
X11535Y7517D01*
X11502Y7417D01*
Y7350D01*
X11535Y7250D01*
X11602Y7183D01*
X11668Y7150D01*
X11768D01*
X11835Y7183D01*
X11902Y7250D01*
X12218Y7617D02*
X12151Y7583D01*
X12085Y7517D01*
X12051Y7417D01*
Y7350D01*
X12085Y7250D01*
X12151Y7183D01*
X12218Y7150D01*
X12318D01*
X12385Y7183D01*
X12451Y7250D01*
X12485Y7350D01*
Y7417D01*
X12451Y7517D01*
X12385Y7583D01*
X12318Y7617D01*
X12218D01*
X12705Y7850D02*
X12738Y7817D01*
X12771Y7850D01*
X12738Y7883D01*
X12705Y7850D01*
X12738Y7617D02*
Y7150D01*
X12895Y7617D02*
Y7150D01*
Y7483D02*
X12995Y7583D01*
X13061Y7617D01*
X13161D01*
X13228Y7583D01*
X13261Y7483D01*
Y7150D01*
X13844Y7517D02*
X13778Y7583D01*
X13711Y7617D01*
X13611D01*
X13544Y7583D01*
X13478Y7517D01*
X13445Y7417D01*
Y7350D01*
X13478Y7250D01*
X13544Y7183D01*
X13611Y7150D01*
X13711D01*
X13778Y7183D01*
X13844Y7250D01*
X14061Y7850D02*
X14094Y7817D01*
X14128Y7850D01*
X14094Y7883D01*
X14061Y7850D01*
X14094Y7617D02*
Y7150D01*
X14651Y7850D02*
Y7150D01*
Y7517D02*
X14584Y7583D01*
X14518Y7617D01*
X14418D01*
X14351Y7583D01*
X14284Y7517D01*
X14251Y7417D01*
Y7350D01*
X14284Y7250D01*
X14351Y7183D01*
X14418Y7150D01*
X14518D01*
X14584Y7183D01*
X14651Y7250D01*
X14838Y7417D02*
X15237D01*
Y7483D01*
X15204Y7550D01*
X15171Y7583D01*
X15104Y7617D01*
X15004D01*
X14938Y7583D01*
X14871Y7517D01*
X14838Y7417D01*
Y7350D01*
X14871Y7250D01*
X14938Y7183D01*
X15004Y7150D01*
X15104D01*
X15171Y7183D01*
X15237Y7250D01*
X15754Y7517D02*
X15721Y7583D01*
X15621Y7617D01*
X15521D01*
X15421Y7583D01*
X15387Y7517D01*
X15421Y7450D01*
X15487Y7417D01*
X15654Y7383D01*
X15721Y7350D01*
X15754Y7283D01*
Y7250D01*
X15721Y7183D01*
X15621Y7150D01*
X15521D01*
X15421Y7183D01*
X15387Y7250D01*
X16451Y7617D02*
X16584Y7150D01*
X16717Y7617D02*
X16584Y7150D01*
X16717Y7617D02*
X16850Y7150D01*
X16984Y7617D02*
X16850Y7150D01*
X17214Y7850D02*
X17247Y7817D01*
X17280Y7850D01*
X17247Y7883D01*
X17214Y7850D01*
X17247Y7617D02*
Y7150D01*
X17504Y7850D02*
Y7283D01*
X17537Y7183D01*
X17604Y7150D01*
X17670D01*
X17404Y7617D02*
X17637D01*
X17770Y7850D02*
Y7150D01*
Y7483D02*
X17870Y7583D01*
X17937Y7617D01*
X18037D01*
X18104Y7583D01*
X18137Y7483D01*
Y7150D01*
X19270Y7517D02*
X19203Y7583D01*
X19137Y7617D01*
X19037D01*
X18970Y7583D01*
X18903Y7517D01*
X18870Y7417D01*
Y7350D01*
X18903Y7250D01*
X18970Y7183D01*
X19037Y7150D01*
X19137D01*
X19203Y7183D01*
X19270Y7250D01*
X19420Y7417D02*
X19820D01*
Y7483D01*
X19786Y7550D01*
X19753Y7583D01*
X19687Y7617D01*
X19587D01*
X19520Y7583D01*
X19453Y7517D01*
X19420Y7417D01*
Y7350D01*
X19453Y7250D01*
X19520Y7183D01*
X19587Y7150D01*
X19687D01*
X19753Y7183D01*
X19820Y7250D01*
X19970Y7617D02*
Y7150D01*
Y7483D02*
X20070Y7583D01*
X20136Y7617D01*
X20236D01*
X20303Y7583D01*
X20336Y7483D01*
Y7150D01*
X20620Y7850D02*
Y7283D01*
X20653Y7183D01*
X20720Y7150D01*
X20786D01*
X20520Y7617D02*
X20753D01*
X20886Y7417D02*
X21286D01*
Y7483D01*
X21253Y7550D01*
X21220Y7583D01*
X21153Y7617D01*
X21053D01*
X20986Y7583D01*
X20920Y7517D01*
X20886Y7417D01*
Y7350D01*
X20920Y7250D01*
X20986Y7183D01*
X21053Y7150D01*
X21153D01*
X21220Y7183D01*
X21286Y7250D01*
X21436Y7617D02*
Y7150D01*
Y7417D02*
X21469Y7517D01*
X21536Y7583D01*
X21603Y7617D01*
X21703D01*
X21766Y7450D02*
X22366D01*
X22573Y7850D02*
Y7150D01*
X22786Y7850D02*
X22819Y7817D01*
X22852Y7850D01*
X22819Y7883D01*
X22786Y7850D01*
X22819Y7617D02*
Y7150D01*
X22976Y7617D02*
Y7150D01*
Y7483D02*
X23076Y7583D01*
X23142Y7617D01*
X23242D01*
X23309Y7583D01*
X23342Y7483D01*
Y7150D01*
X23526Y7417D02*
X23926D01*
Y7483D01*
X23892Y7550D01*
X23859Y7583D01*
X23792Y7617D01*
X23692D01*
X23626Y7583D01*
X23559Y7517D01*
X23526Y7417D01*
Y7350D01*
X23559Y7250D01*
X23626Y7183D01*
X23692Y7150D01*
X23792D01*
X23859Y7183D01*
X23926Y7250D01*
X24442Y7517D02*
X24409Y7583D01*
X24309Y7617D01*
X24209D01*
X24109Y7583D01*
X24076Y7517D01*
X24109Y7450D01*
X24176Y7417D01*
X24342Y7383D01*
X24409Y7350D01*
X24442Y7283D01*
Y7250D01*
X24409Y7183D01*
X24309Y7150D01*
X24209D01*
X24109Y7183D01*
X24076Y7250D01*
X25305Y7617D02*
X25239Y7583D01*
X25172Y7517D01*
X25139Y7417D01*
Y7350D01*
X25172Y7250D01*
X25239Y7183D01*
X25305Y7150D01*
X25405D01*
X25472Y7183D01*
X25539Y7250D01*
X25572Y7350D01*
Y7417D01*
X25539Y7517D01*
X25472Y7583D01*
X25405Y7617D01*
X25305D01*
X25992Y7850D02*
X25925D01*
X25859Y7817D01*
X25825Y7717D01*
Y7150D01*
X25725Y7617D02*
X25958D01*
X26742Y7850D02*
Y7283D01*
X26775Y7183D01*
X26842Y7150D01*
X26908D01*
X26642Y7617D02*
X26875D01*
X27008D02*
Y7150D01*
Y7417D02*
X27042Y7517D01*
X27108Y7583D01*
X27175Y7617D01*
X27275D01*
X27738D02*
Y7150D01*
Y7517D02*
X27671Y7583D01*
X27605Y7617D01*
X27505D01*
X27438Y7583D01*
X27372Y7517D01*
X27338Y7417D01*
Y7350D01*
X27372Y7250D01*
X27438Y7183D01*
X27505Y7150D01*
X27605D01*
X27671Y7183D01*
X27738Y7250D01*
X28325Y7517D02*
X28258Y7583D01*
X28191Y7617D01*
X28091D01*
X28025Y7583D01*
X27958Y7517D01*
X27925Y7417D01*
Y7350D01*
X27958Y7250D01*
X28025Y7183D01*
X28091Y7150D01*
X28191D01*
X28258Y7183D01*
X28325Y7250D01*
X28475Y7850D02*
Y7150D01*
X28808Y7617D02*
X28475Y7283D01*
X28608Y7417D02*
X28841Y7150D01*
X29318Y7517D02*
X29284Y7583D01*
X29184Y7617D01*
X29084D01*
X28985Y7583D01*
X28951Y7517D01*
X28985Y7450D01*
X29051Y7417D01*
X29218Y7383D01*
X29284Y7350D01*
X29318Y7283D01*
Y7250D01*
X29284Y7183D01*
X29184Y7150D01*
X29084D01*
X28985Y7183D01*
X28951Y7250D01*
X1933Y-2000D02*
Y-2700D01*
X1700Y-2000D02*
X2167D01*
X2417Y-2233D02*
X2350Y-2267D01*
X2283Y-2333D01*
X2250Y-2433D01*
Y-2500D01*
X2283Y-2600D01*
X2350Y-2667D01*
X2417Y-2700D01*
X2516D01*
X2583Y-2667D01*
X2650Y-2600D01*
X2683Y-2500D01*
Y-2433D01*
X2650Y-2333D01*
X2583Y-2267D01*
X2516Y-2233D01*
X2417D01*
X2836D02*
Y-2933D01*
Y-2333D02*
X2903Y-2267D01*
X2970Y-2233D01*
X3070D01*
X3136Y-2267D01*
X3203Y-2333D01*
X3236Y-2433D01*
Y-2500D01*
X3203Y-2600D01*
X3136Y-2667D01*
X3070Y-2700D01*
X2970D01*
X2903Y-2667D01*
X2836Y-2600D01*
X4136Y-2000D02*
X4069Y-2033D01*
X4003Y-2100D01*
X3970Y-2167D01*
X3936Y-2267D01*
Y-2433D01*
X3970Y-2533D01*
X4003Y-2600D01*
X4069Y-2667D01*
X4136Y-2700D01*
X4269D01*
X4336Y-2667D01*
X4403Y-2600D01*
X4436Y-2533D01*
X4469Y-2433D01*
Y-2267D01*
X4436Y-2167D01*
X4403Y-2100D01*
X4336Y-2033D01*
X4269Y-2000D01*
X4136D01*
X4633Y-2233D02*
X4833Y-2700D01*
X5033Y-2233D02*
X4833Y-2700D01*
X5146Y-2433D02*
X5546D01*
Y-2367D01*
X5513Y-2300D01*
X5479Y-2267D01*
X5413Y-2233D01*
X5313D01*
X5246Y-2267D01*
X5179Y-2333D01*
X5146Y-2433D01*
Y-2500D01*
X5179Y-2600D01*
X5246Y-2667D01*
X5313Y-2700D01*
X5413D01*
X5479Y-2667D01*
X5546Y-2600D01*
X5696Y-2233D02*
Y-2700D01*
Y-2433D02*
X5729Y-2333D01*
X5796Y-2267D01*
X5862Y-2233D01*
X5962D01*
X6026Y-2000D02*
Y-2700D01*
X6572Y-2233D02*
Y-2700D01*
Y-2333D02*
X6506Y-2267D01*
X6439Y-2233D01*
X6339D01*
X6272Y-2267D01*
X6206Y-2333D01*
X6172Y-2433D01*
Y-2500D01*
X6206Y-2600D01*
X6272Y-2667D01*
X6339Y-2700D01*
X6439D01*
X6506Y-2667D01*
X6572Y-2600D01*
X6792Y-2233D02*
X6992Y-2700D01*
X7192Y-2233D02*
X6992Y-2700D01*
X6926Y-2833D01*
X6859Y-2900D01*
X6792Y-2933D01*
X6759D01*
D33*
X-250Y6450D02*
X1800D01*
X-250Y4400D02*
Y6450D01*
X19890Y4400D02*
Y6450D01*
X17840D02*
X19890D01*
X17840Y-250D02*
X19890D01*
Y1800D01*
X-250Y-250D02*
Y1800D01*
Y-250D02*
X1800D01*
D37*
X9561Y3839D02*
G03*
X9561Y3839I-49J0D01*
G01*
X16779Y2108D02*
G03*
X16779Y2108I-49J0D01*
G01*
X3934Y1428D02*
G03*
X3934Y1428I-49J0D01*
G01*
X13349Y2307D02*
G03*
X13349Y2307I-49J0D01*
G01*
X3677Y5419D02*
G03*
X3677Y5419I-49J0D01*
G01*
D38*
X3000Y4200D02*
G03*
X3000Y4200I-49J0D01*
G01*
D39*
X0Y0D02*
X19640D01*
Y6200D01*
X0D02*
X19640D01*
X0Y0D02*
Y6200D01*
X8700Y4250D02*
Y3958D01*
X8758Y3900D01*
X8875D01*
X8933Y3958D01*
Y4250D01*
X9050Y3900D02*
X9167D01*
X9108D01*
Y4250D01*
X9050Y4192D01*
X13250Y2700D02*
X13308D01*
X13425Y2817D01*
X13308Y2933D01*
X13250D01*
X13425Y2817D02*
X13600D01*
Y3050D02*
Y3167D01*
Y3108D01*
X13250D01*
X13308Y3050D01*
X4300Y1050D02*
Y758D01*
X4358Y700D01*
X4475D01*
X4533Y758D01*
Y1050D01*
X4825Y700D02*
Y1050D01*
X4650Y875D01*
X4883D01*
X2850Y4400D02*
X3142D01*
X3200Y4458D01*
Y4575D01*
X3142Y4633D01*
X2850D01*
X2908Y4750D02*
X2850Y4808D01*
Y4925D01*
X2908Y4983D01*
X2967D01*
X3025Y4925D01*
Y4867D01*
Y4925D01*
X3083Y4983D01*
X3142D01*
X3200Y4925D01*
Y4808D01*
X3142Y4750D01*
X3800Y5850D02*
Y5558D01*
X3858Y5500D01*
X3975D01*
X4033Y5558D01*
Y5850D01*
X4383Y5500D02*
X4150D01*
X4383Y5733D01*
Y5792D01*
X4325Y5850D01*
X4208D01*
X4150Y5792D01*
X15770Y930D02*
Y1280D01*
X15945D01*
X16003Y1222D01*
Y1105D01*
X15945Y1047D01*
X15770D01*
X15887D02*
X16003Y930D01*
X16120Y1280D02*
X16353D01*
Y1222D01*
X16120Y988D01*
Y930D01*
X7370Y5303D02*
X7020D01*
Y5478D01*
X7078Y5536D01*
X7195D01*
X7253Y5478D01*
Y5303D01*
Y5420D02*
X7370Y5536D01*
X7020Y5886D02*
X7078Y5770D01*
X7195Y5653D01*
X7312D01*
X7370Y5711D01*
Y5828D01*
X7312Y5886D01*
X7253D01*
X7195Y5828D01*
Y5653D01*
X7600Y2050D02*
X7250D01*
Y2225D01*
X7308Y2283D01*
X7425D01*
X7483Y2225D01*
Y2050D01*
Y2167D02*
X7600Y2283D01*
X7250Y2633D02*
Y2400D01*
X7425D01*
X7367Y2517D01*
Y2575D01*
X7425Y2633D01*
X7542D01*
X7600Y2575D01*
Y2458D01*
X7542Y2400D01*
X5450Y3330D02*
Y3680D01*
X5625D01*
X5683Y3622D01*
Y3505D01*
X5625Y3447D01*
X5450D01*
X5567D02*
X5683Y3330D01*
X5975D02*
Y3680D01*
X5800Y3505D01*
X6033D01*
X5450Y2730D02*
Y3080D01*
X5625D01*
X5683Y3022D01*
Y2905D01*
X5625Y2847D01*
X5450D01*
X5567D02*
X5683Y2730D01*
X5800Y3022D02*
X5858Y3080D01*
X5975D01*
X6033Y3022D01*
Y2963D01*
X5975Y2905D01*
X5917D01*
X5975D01*
X6033Y2847D01*
Y2788D01*
X5975Y2730D01*
X5858D01*
X5800Y2788D01*
X2800Y5330D02*
Y5680D01*
X2975D01*
X3033Y5622D01*
Y5505D01*
X2975Y5447D01*
X2800D01*
X2917D02*
X3033Y5330D01*
X3383D02*
X3150D01*
X3383Y5563D01*
Y5622D01*
X3325Y5680D01*
X3208D01*
X3150Y5622D01*
X1100Y3730D02*
Y4080D01*
X1275D01*
X1333Y4022D01*
Y3905D01*
X1275Y3847D01*
X1100D01*
X1217D02*
X1333Y3730D01*
X1450D02*
X1567D01*
X1508D01*
Y4080D01*
X1450Y4022D01*
X6583Y908D02*
Y1142D01*
X6525Y1200D01*
X6408D01*
X6350Y1142D01*
Y908D01*
X6408Y850D01*
X6525D01*
X6467Y967D02*
X6583Y850D01*
X6525D02*
X6583Y908D01*
X6700Y850D02*
X6817D01*
X6758D01*
Y1200D01*
X6700Y1142D01*
X2070Y3170D02*
Y2820D01*
X2303D01*
X2420D02*
X2537D01*
X2478D01*
Y3170D01*
X2420Y3112D01*
X18133Y4150D02*
X18017D01*
X18075D01*
Y3858D01*
X18017Y3800D01*
X17958D01*
X17900Y3858D01*
X18483Y3800D02*
X18250D01*
X18483Y4033D01*
Y4092D01*
X18425Y4150D01*
X18308D01*
X18250Y4092D01*
X10433Y4350D02*
X10317D01*
X10375D01*
Y4058D01*
X10317Y4000D01*
X10258D01*
X10200Y4058D01*
X10550Y4000D02*
X10667D01*
X10608D01*
Y4350D01*
X10550Y4292D01*
X5850Y4500D02*
X6200D01*
Y4675D01*
X6142Y4733D01*
X5908D01*
X5850Y4675D01*
Y4500D01*
X6200Y4850D02*
Y4967D01*
Y4908D01*
X5850D01*
X5908Y4850D01*
X6433Y3492D02*
X6375Y3550D01*
X6258D01*
X6200Y3492D01*
Y3258D01*
X6258Y3200D01*
X6375D01*
X6433Y3258D01*
X6550Y3200D02*
X6667D01*
X6608D01*
Y3550D01*
X6550Y3492D01*
X6841D02*
X6900Y3550D01*
X7016D01*
X7075Y3492D01*
Y3258D01*
X7016Y3200D01*
X6900D01*
X6841Y3258D01*
Y3492D01*
X16003Y1822D02*
X15945Y1880D01*
X15828D01*
X15770Y1822D01*
Y1588D01*
X15828Y1530D01*
X15945D01*
X16003Y1588D01*
X16120D02*
X16178Y1530D01*
X16295D01*
X16353Y1588D01*
Y1822D01*
X16295Y1880D01*
X16178D01*
X16120Y1822D01*
Y1763D01*
X16178Y1705D01*
X16353D01*
X3388Y3253D02*
X3330Y3195D01*
Y3078D01*
X3388Y3020D01*
X3622D01*
X3680Y3078D01*
Y3195D01*
X3622Y3253D01*
X3388Y3370D02*
X3330Y3428D01*
Y3545D01*
X3388Y3603D01*
X3447D01*
X3505Y3545D01*
X3563Y3603D01*
X3622D01*
X3680Y3545D01*
Y3428D01*
X3622Y3370D01*
X3563D01*
X3505Y3428D01*
X3447Y3370D01*
X3388D01*
X3505Y3428D02*
Y3545D01*
X5608Y933D02*
X5550Y875D01*
Y758D01*
X5608Y700D01*
X5842D01*
X5900Y758D01*
Y875D01*
X5842Y933D01*
X5550Y1050D02*
Y1283D01*
X5608D01*
X5842Y1050D01*
X5900D01*
X782Y5536D02*
X723Y5478D01*
Y5361D01*
X782Y5303D01*
X1015D01*
X1073Y5361D01*
Y5478D01*
X1015Y5536D01*
X723Y5886D02*
X782Y5770D01*
X898Y5653D01*
X1015D01*
X1073Y5711D01*
Y5828D01*
X1015Y5886D01*
X957D01*
X898Y5828D01*
Y5653D01*
X5078Y5536D02*
X5020Y5478D01*
Y5361D01*
X5078Y5303D01*
X5312D01*
X5370Y5361D01*
Y5478D01*
X5312Y5536D01*
X5020Y5886D02*
Y5653D01*
X5195D01*
X5137Y5770D01*
Y5828D01*
X5195Y5886D01*
X5312D01*
X5370Y5828D01*
Y5711D01*
X5312Y5653D01*
X13273Y1772D02*
X13215Y1830D01*
X13098D01*
X13040Y1772D01*
Y1538D01*
X13098Y1480D01*
X13215D01*
X13273Y1538D01*
X13565Y1480D02*
Y1830D01*
X13390Y1655D01*
X13623D01*
X9973Y1122D02*
X9915Y1180D01*
X9798D01*
X9740Y1122D01*
Y888D01*
X9798Y830D01*
X9915D01*
X9973Y888D01*
X10090Y1122D02*
X10148Y1180D01*
X10265D01*
X10323Y1122D01*
Y1063D01*
X10265Y1005D01*
X10207D01*
X10265D01*
X10323Y947D01*
Y888D01*
X10265Y830D01*
X10148D01*
X10090Y888D01*
X10778Y2973D02*
X10720Y2915D01*
Y2798D01*
X10778Y2740D01*
X11012D01*
X11070Y2798D01*
Y2915D01*
X11012Y2973D01*
X11070Y3323D02*
Y3090D01*
X10837Y3323D01*
X10778D01*
X10720Y3265D01*
Y3148D01*
X10778Y3090D01*
X11323Y3972D02*
X11265Y4030D01*
X11148D01*
X11090Y3972D01*
Y3738D01*
X11148Y3680D01*
X11265D01*
X11323Y3738D01*
X11440Y3680D02*
X11557D01*
X11498D01*
Y4030D01*
X11440Y3972D01*
X6400Y5300D02*
Y5533D01*
X6517Y5650D01*
X6633Y5533D01*
Y5300D01*
Y5475D01*
X6400D01*
X10500Y750D02*
X10617D01*
X10558D01*
Y400D01*
X10500D01*
X10617D01*
X11025D02*
X10792D01*
X11025Y633D01*
Y692D01*
X10967Y750D01*
X10850D01*
X10792Y692D01*
X11375D02*
X11316Y750D01*
X11200D01*
X11141Y692D01*
Y458D01*
X11200Y400D01*
X11316D01*
X11375Y458D01*
X11841Y750D02*
X12074D01*
X11958D01*
Y400D01*
X12366D02*
X12249D01*
X12191Y458D01*
Y575D01*
X12249Y633D01*
X12366D01*
X12424Y575D01*
Y517D01*
X12191D01*
X12541Y400D02*
Y633D01*
X12599D01*
X12658Y575D01*
Y400D01*
Y575D01*
X12716Y633D01*
X12774Y575D01*
Y400D01*
X12891Y283D02*
Y633D01*
X13066D01*
X13124Y575D01*
Y458D01*
X13066Y400D01*
X12891D01*
X13416D02*
X13299D01*
X13241Y458D01*
Y575D01*
X13299Y633D01*
X13416D01*
X13474Y575D01*
Y517D01*
X13241D01*
X13591Y633D02*
Y400D01*
Y517D01*
X13649Y575D01*
X13707Y633D01*
X13766D01*
X13999D02*
X14116D01*
X14174Y575D01*
Y400D01*
X13999D01*
X13941Y458D01*
X13999Y517D01*
X14174D01*
X14349Y692D02*
Y633D01*
X14290D01*
X14407D01*
X14349D01*
Y458D01*
X14407Y400D01*
X14582Y633D02*
Y458D01*
X14640Y400D01*
X14815D01*
Y633D01*
X14932D02*
Y400D01*
Y517D01*
X14990Y575D01*
X15049Y633D01*
X15107D01*
X15457Y400D02*
X15340D01*
X15282Y458D01*
Y575D01*
X15340Y633D01*
X15457D01*
X15515Y575D01*
Y517D01*
X15282D01*
X15982Y750D02*
Y400D01*
X16157D01*
X16215Y458D01*
Y692D01*
X16157Y750D01*
X15982D01*
X16390Y633D02*
X16506D01*
X16565Y575D01*
Y400D01*
X16390D01*
X16331Y458D01*
X16390Y517D01*
X16565D01*
X16740Y692D02*
Y633D01*
X16681D01*
X16798D01*
X16740D01*
Y458D01*
X16798Y400D01*
X17031Y633D02*
X17148D01*
X17206Y575D01*
Y400D01*
X17031D01*
X16973Y458D01*
X17031Y517D01*
X17206D01*
X17323Y400D02*
X17439D01*
X17381D01*
Y750D01*
X17323D01*
X17673Y400D02*
X17789D01*
X17848Y458D01*
Y575D01*
X17789Y633D01*
X17673D01*
X17614Y575D01*
Y458D01*
X17673Y400D01*
X18081Y283D02*
X18139D01*
X18198Y342D01*
Y633D01*
X18023D01*
X17964Y575D01*
Y458D01*
X18023Y400D01*
X18198D01*
X18431Y283D02*
X18489D01*
X18547Y342D01*
Y633D01*
X18372D01*
X18314Y575D01*
Y458D01*
X18372Y400D01*
X18547D01*
X18839D02*
X18722D01*
X18664Y458D01*
Y575D01*
X18722Y633D01*
X18839D01*
X18897Y575D01*
Y517D01*
X18664D01*
X19014Y633D02*
Y400D01*
Y517D01*
X19072Y575D01*
X19131Y633D01*
X19189D01*
D40*
X9817Y3484D02*
X9984D01*
Y3317D02*
Y3484D01*
Y1516D02*
Y1683D01*
X9817Y1516D02*
X9984D01*
X8016D02*
X8183D01*
X8016D02*
Y1683D01*
Y3317D02*
Y3484D01*
X8183D01*
X7700Y4550D02*
Y5550D01*
X13700Y4550D02*
Y5550D01*
X7700Y4550D02*
X13700D01*
X7700Y5550D02*
X13700D01*
X17616Y5572D02*
Y6143D01*
Y3486D02*
Y4273D01*
X14584Y3486D02*
Y4273D01*
Y5572D02*
Y6143D01*
X17616D01*
X6100Y4300D02*
X6200D01*
X6800D02*
X6900D01*
X3993Y1762D02*
Y2038D01*
X5213Y1762D02*
Y2038D01*
X3993Y1762D02*
X5213D01*
X3993Y2038D02*
X5213D01*
X11550Y2126D02*
Y3386D01*
X11600D01*
X11550Y2126D02*
X11600D01*
X13000D02*
X13050D01*
X13000Y3386D02*
X13050D01*
Y2126D02*
Y3386D01*
X1752Y1800D02*
Y2000D01*
X2854Y1800D02*
Y2000D01*
X3962Y5310D02*
X4238D01*
X3962Y4090D02*
X4238D01*
X3962D02*
Y5310D01*
X4238Y4090D02*
Y5310D01*
D41*
X7261Y-1460D02*
Y-860D01*
X6961Y-1160D01*
X7361D01*
X7561Y-1460D02*
Y-1360D01*
X7661D01*
Y-1460D01*
X7561D01*
X8061Y-1360D02*
X8160Y-1460D01*
X8360D01*
X8460Y-1360D01*
Y-960D01*
X8360Y-860D01*
X8160D01*
X8061Y-960D01*
Y-1060D01*
X8160Y-1160D01*
X8460D01*
X8660Y-960D02*
X8760Y-860D01*
X8960D01*
X9060Y-960D01*
Y-1060D01*
X8960Y-1160D01*
X9060Y-1260D01*
Y-1360D01*
X8960Y-1460D01*
X8760D01*
X8660Y-1360D01*
Y-1260D01*
X8760Y-1160D01*
X8660Y-1060D01*
Y-960D01*
X8760Y-1160D02*
X8960D01*
X9260Y-1360D02*
X9360Y-1460D01*
X9560D01*
X9660Y-1360D01*
Y-960D01*
X9560Y-860D01*
X9360D01*
X9260Y-960D01*
Y-1060D01*
X9360Y-1160D01*
X9660D01*
X10660Y-1460D02*
X10460Y-1260D01*
Y-1060D01*
X10660Y-860D01*
X11359Y-1060D02*
X11060D01*
X10960Y-1160D01*
Y-1360D01*
X11060Y-1460D01*
X11359D01*
X11559D02*
Y-1060D01*
X11659D01*
X11759Y-1160D01*
Y-1460D01*
Y-1160D01*
X11859Y-1060D01*
X11959Y-1160D01*
Y-1460D01*
X12159D02*
X12359Y-1260D01*
Y-1060D01*
X12159Y-860D01*
X-1720Y291D02*
Y491D01*
Y391D01*
X-2320D01*
X-2220Y291D01*
X-1720Y791D02*
X-1820D01*
Y891D01*
X-1720D01*
Y791D01*
X-2320Y1690D02*
Y1291D01*
X-2020D01*
X-2120Y1490D01*
Y1590D01*
X-2020Y1690D01*
X-1820D01*
X-1720Y1590D01*
Y1391D01*
X-1820Y1291D01*
X-2320Y1890D02*
Y2290D01*
X-2220D01*
X-1820Y1890D01*
X-1720D01*
X-2320Y2890D02*
Y2490D01*
X-2020D01*
X-2120Y2690D01*
Y2790D01*
X-2020Y2890D01*
X-1820D01*
X-1720Y2790D01*
Y2590D01*
X-1820Y2490D01*
X-1720Y3890D02*
X-1920Y3690D01*
X-2120D01*
X-2320Y3890D01*
X-2120Y4589D02*
Y4290D01*
X-2020Y4190D01*
X-1820D01*
X-1720Y4290D01*
Y4589D01*
Y4789D02*
X-2120D01*
Y4889D01*
X-2020Y4989D01*
X-1720D01*
X-2020D01*
X-2120Y5089D01*
X-2020Y5189D01*
X-1720D01*
Y5389D02*
X-1920Y5589D01*
X-2120D01*
X-2320Y5389D01*
M02*
