%FSLAX24Y24*%
%MOIN*%
G70*
G01*
G75*
G04 Layer_Color=8388736*
%ADD10O,0.0138X0.0256*%
%ADD11O,0.0256X0.0138*%
%ADD12R,0.1339X0.1339*%
%ADD13R,0.0354X0.0276*%
%ADD14R,0.0354X0.0315*%
%ADD15R,0.0551X0.0433*%
%ADD16R,0.0315X0.0354*%
%ADD17R,0.0276X0.0354*%
%ADD18R,0.0984X0.0866*%
%ADD19R,0.0197X0.0787*%
%ADD20R,0.0689X0.0571*%
%ADD21R,0.0295X0.0118*%
%ADD22R,0.0256X0.0354*%
%ADD23R,0.0453X0.0551*%
%ADD24R,0.0177X0.0315*%
%ADD25R,0.1260X0.0433*%
%ADD26R,0.0354X0.0256*%
%ADD27C,0.0100*%
%ADD28C,0.0150*%
%ADD29C,0.0200*%
%ADD30C,0.0180*%
%ADD31C,0.0300*%
%ADD32C,0.0130*%
%ADD33C,0.0500*%
%ADD34R,0.0620X0.0620*%
%ADD35C,0.0620*%
%ADD36C,0.0350*%
%ADD37C,0.0098*%
%ADD38C,0.0098*%
%ADD39C,0.0050*%
%ADD40C,0.0079*%
%ADD41C,0.0060*%
%ADD42O,0.0218X0.0336*%
%ADD43O,0.0336X0.0218*%
%ADD44R,0.1419X0.1419*%
%ADD45R,0.0434X0.0356*%
%ADD46R,0.0434X0.0395*%
%ADD47R,0.0631X0.0513*%
%ADD48R,0.0395X0.0434*%
%ADD49R,0.0356X0.0434*%
%ADD50R,0.1064X0.0946*%
%ADD51R,0.0277X0.0867*%
%ADD52R,0.0769X0.0651*%
%ADD53R,0.0375X0.0198*%
%ADD54R,0.0336X0.0434*%
%ADD55R,0.0533X0.0631*%
%ADD56R,0.0257X0.0395*%
%ADD57R,0.1340X0.0513*%
%ADD58R,0.0434X0.0336*%
%ADD59R,0.0700X0.0700*%
%ADD60C,0.0700*%
D27*
X7633Y-2000D02*
Y-2700D01*
X7400Y-2000D02*
X7867D01*
X8117Y-2233D02*
X8050Y-2267D01*
X7983Y-2333D01*
X7950Y-2433D01*
Y-2500D01*
X7983Y-2600D01*
X8050Y-2667D01*
X8117Y-2700D01*
X8216D01*
X8283Y-2667D01*
X8350Y-2600D01*
X8383Y-2500D01*
Y-2433D01*
X8350Y-2333D01*
X8283Y-2267D01*
X8216Y-2233D01*
X8117D01*
X8536D02*
Y-2933D01*
Y-2333D02*
X8603Y-2267D01*
X8670Y-2233D01*
X8770D01*
X8836Y-2267D01*
X8903Y-2333D01*
X8936Y-2433D01*
Y-2500D01*
X8903Y-2600D01*
X8836Y-2667D01*
X8770Y-2700D01*
X8670D01*
X8603Y-2667D01*
X8536Y-2600D01*
X10103Y-2100D02*
X10036Y-2033D01*
X9936Y-2000D01*
X9803D01*
X9703Y-2033D01*
X9636Y-2100D01*
Y-2167D01*
X9670Y-2233D01*
X9703Y-2267D01*
X9769Y-2300D01*
X9969Y-2367D01*
X10036Y-2400D01*
X10069Y-2433D01*
X10103Y-2500D01*
Y-2600D01*
X10036Y-2667D01*
X9936Y-2700D01*
X9803D01*
X9703Y-2667D01*
X9636Y-2600D01*
X10426Y-2233D02*
X10359Y-2267D01*
X10293Y-2333D01*
X10259Y-2433D01*
Y-2500D01*
X10293Y-2600D01*
X10359Y-2667D01*
X10426Y-2700D01*
X10526D01*
X10593Y-2667D01*
X10659Y-2600D01*
X10693Y-2500D01*
Y-2433D01*
X10659Y-2333D01*
X10593Y-2267D01*
X10526Y-2233D01*
X10426D01*
X10846Y-2000D02*
Y-2700D01*
X11392Y-2000D02*
Y-2700D01*
Y-2333D02*
X11326Y-2267D01*
X11259Y-2233D01*
X11159D01*
X11093Y-2267D01*
X11026Y-2333D01*
X10993Y-2433D01*
Y-2500D01*
X11026Y-2600D01*
X11093Y-2667D01*
X11159Y-2700D01*
X11259D01*
X11326Y-2667D01*
X11392Y-2600D01*
X11579Y-2433D02*
X11979D01*
Y-2367D01*
X11946Y-2300D01*
X11912Y-2267D01*
X11846Y-2233D01*
X11746D01*
X11679Y-2267D01*
X11612Y-2333D01*
X11579Y-2433D01*
Y-2500D01*
X11612Y-2600D01*
X11679Y-2667D01*
X11746Y-2700D01*
X11846D01*
X11912Y-2667D01*
X11979Y-2600D01*
X12129Y-2233D02*
Y-2700D01*
Y-2433D02*
X12162Y-2333D01*
X12229Y-2267D01*
X12296Y-2233D01*
X12396D01*
D33*
X-250Y6450D02*
X1800D01*
X-250Y4400D02*
Y6450D01*
X19890Y4400D02*
Y6450D01*
X17840D02*
X19890D01*
X17840Y-250D02*
X19890D01*
Y1800D01*
X-250Y-250D02*
Y1800D01*
Y-250D02*
X1800D01*
D35*
X15411Y3624D02*
D03*
X16789D02*
D03*
D42*
X9512Y3494D02*
D03*
X9256D02*
D03*
X9000D02*
D03*
X8744D02*
D03*
X8488D02*
D03*
X8488Y1506D02*
D03*
X8744D02*
D03*
X9000D02*
D03*
X9256D02*
D03*
X9512D02*
D03*
D43*
X8006Y3012D02*
D03*
Y2756D02*
D03*
Y2500D02*
D03*
Y2244D02*
D03*
Y1988D02*
D03*
X9994Y1988D02*
D03*
Y2244D02*
D03*
Y2500D02*
D03*
Y2756D02*
D03*
Y3012D02*
D03*
D44*
X9000Y2500D02*
D03*
D45*
X7200Y4995D02*
D03*
Y4405D02*
D03*
X7400Y1745D02*
D03*
Y1155D02*
D03*
D46*
X5200Y4424D02*
D03*
Y4976D02*
D03*
X10900Y2276D02*
D03*
Y1724D02*
D03*
X6500Y4976D02*
D03*
Y4424D02*
D03*
X900Y4424D02*
D03*
Y4976D02*
D03*
D47*
X5703Y2195D02*
D03*
Y1605D02*
D03*
X3503Y2491D02*
D03*
Y1900D02*
D03*
D48*
X17376Y1700D02*
D03*
X16824D02*
D03*
X9276Y1000D02*
D03*
X8724D02*
D03*
X6324Y2800D02*
D03*
X6876D02*
D03*
X12576Y1656D02*
D03*
X12024D02*
D03*
Y3856D02*
D03*
X12576D02*
D03*
D49*
X17395Y1100D02*
D03*
X16805D02*
D03*
X4605Y2900D02*
D03*
X5195D02*
D03*
Y3500D02*
D03*
X4605D02*
D03*
X2495Y3900D02*
D03*
X1905D02*
D03*
X2495Y5500D02*
D03*
X1905D02*
D03*
D50*
X14446Y4923D02*
D03*
X17754D02*
D03*
Y2836D02*
D03*
X14446D02*
D03*
D51*
X16730Y2738D02*
D03*
X16415D02*
D03*
X16100D02*
D03*
X15785D02*
D03*
X15470D02*
D03*
D52*
X1997Y4700D02*
D03*
D53*
X1426Y4405D02*
D03*
Y4602D02*
D03*
Y4798D02*
D03*
Y4995D02*
D03*
X2568D02*
D03*
Y4798D02*
D03*
Y4602D02*
D03*
Y4405D02*
D03*
D54*
X4229Y1428D02*
D03*
X4603D02*
D03*
X4977D02*
D03*
Y2372D02*
D03*
X4603D02*
D03*
X4229D02*
D03*
D55*
X12615Y2323D02*
D03*
Y3189D02*
D03*
X11985D02*
D03*
Y2323D02*
D03*
D56*
X6344Y2274D02*
D03*
Y1526D02*
D03*
X6600D02*
D03*
X6856D02*
D03*
Y2274D02*
D03*
D57*
X2303Y2313D02*
D03*
Y1487D02*
D03*
D58*
X3628Y5074D02*
D03*
Y4700D02*
D03*
Y4326D02*
D03*
X4572D02*
D03*
Y5074D02*
D03*
D59*
X13200Y5050D02*
D03*
D60*
X12200D02*
D03*
X11200D02*
D03*
X10200D02*
D03*
X9200D02*
D03*
X8200D02*
D03*
X1040Y2100D02*
D03*
X18640D02*
D03*
M02*
